<?xml version="1.0" encoding="UTF-8"?>
<svg id="Ebene_1" data-name="Ebene 1" xmlns="http://www.w3.org/2000/svg" version="1.1" viewBox="0 0 553 635">
  <defs>
    <style>
      .cls-1 {
        fill: #999;
      }

      .cls-1, .cls-2 {
        stroke-width: 0px;
      }

      .cls-3 {
        stroke-linecap: round;
        stroke-linejoin: round;
        stroke-width: 3px;
      }

      .cls-3, .cls-4 {
        fill: none;
        stroke: #999;
      }

      .cls-4 {
        stroke-miterlimit: 10;
      }

      .cls-2 {
        fill: #fff;
      }
    </style>
  </defs>
  <g>
    <path class="cls-1" d="M58.7,29.18h-8.26v-1.33h3.51v-10.12h-.13l-3.17,2.95-.88-.95,3.33-3.11h2.36v11.23h3.24v1.33Z"/>
    <path class="cls-1" d="M62.1,29.39c-.37,0-.65-.1-.83-.3-.18-.2-.27-.45-.27-.75v-.23c0-.31.09-.56.27-.76.18-.19.46-.29.83-.29s.66.1.84.29c.17.19.26.44.26.76v.23c0,.3-.09.55-.26.75-.17.2-.45.3-.84.3Z"/>
    <path class="cls-1" d="M70.04,29.18h-1.51v-12.56h7.49v1.33h-5.98v4.21h5.45v1.33h-5.45v5.69Z"/>
    <path class="cls-1" d="M81.5,29.39c-.83,0-1.56-.2-2.19-.6-.63-.4-1.12-.97-1.48-1.69-.35-.73-.53-1.58-.53-2.56s.18-1.84.53-2.56.85-1.29,1.48-1.69,1.36-.6,2.19-.6,1.56.2,2.19.6,1.12.97,1.48,1.69c.35.73.53,1.58.53,2.56s-.18,1.84-.53,2.56c-.35.73-.85,1.29-1.48,1.69-.63.4-1.36.6-2.19.6ZM81.5,28.12c.78,0,1.42-.24,1.91-.72.49-.48.74-1.21.74-2.2v-1.33c0-.98-.25-1.72-.74-2.2-.49-.48-1.13-.72-1.91-.72s-1.4.24-1.9.72c-.5.48-.75,1.21-.75,2.2v1.33c0,.98.25,1.72.75,2.2.5.48,1.13.72,1.9.72Z"/>
    <path class="cls-1" d="M89.51,29.18h-1.44v-9.29h1.44v1.71h.09c.11-.3.28-.58.5-.84.23-.26.52-.47.88-.63.36-.16.79-.24,1.3-.24h.56v1.44h-.85c-.52,0-.96.07-1.33.21-.37.14-.66.32-.85.55-.2.23-.3.49-.3.79v6.3Z"/>
    <path class="cls-1" d="M96.12,29.18h-1.44v-9.29h1.44v1.51h.07c.2-.48.49-.89.86-1.22s.92-.5,1.64-.5c.61,0,1.18.15,1.69.44s.9.78,1.15,1.45h.04c.17-.5.48-.95.95-1.32.46-.38,1.09-.57,1.88-.57.95,0,1.69.31,2.22.93.53.62.8,1.49.8,2.62v5.96h-1.44v-5.71c0-.82-.16-1.44-.49-1.86-.32-.43-.84-.64-1.55-.64-.37,0-.73.06-1.06.19s-.61.32-.81.58c-.2.26-.31.59-.31.99v6.44h-1.44v-5.71c0-.83-.16-1.45-.49-1.87-.32-.42-.83-.63-1.51-.63-.37,0-.73.06-1.07.19-.34.13-.62.32-.83.58-.21.26-.31.59-.31.99v6.44Z"/>
    <path class="cls-1" d="M122.2,29.18h-.81c-.38,0-.7-.08-.94-.24-.24-.16-.41-.39-.52-.67-.11-.29-.16-.62-.16-.99v-.13l.56.52h-.63c-.19.56-.52.99-1,1.29s-1.03.44-1.68.44c-.98,0-1.75-.25-2.29-.76s-.82-1.19-.82-2.05c0-.59.14-1.08.43-1.49.29-.4.72-.71,1.3-.92.58-.21,1.32-.31,2.22-.31h1.84v-.92c0-.66-.18-1.16-.54-1.51-.36-.35-.91-.52-1.66-.52-.55,0-1.02.13-1.4.38-.38.25-.7.59-.95,1.01l-.86-.81c.25-.49.65-.92,1.21-1.28.55-.36,1.25-.54,2.09-.54,1.12,0,1.99.28,2.62.83.63.55.94,1.32.94,2.3v5.11h1.06v1.26ZM119.7,24.95h-1.91c-.82,0-1.42.12-1.8.36-.38.24-.58.59-.58,1.04v.38c0,.46.17.81.5,1.06.34.25.78.38,1.33.38.48,0,.9-.08,1.27-.23.37-.15.65-.35.86-.61.21-.26.31-.54.31-.85v-1.53Z"/>
    <path class="cls-1" d="M131.31,29.18h-1.28c-.49,0-.87-.14-1.13-.42-.26-.28-.4-.64-.4-1.07v-11.83h1.44v12.06h1.37v1.26Z"/>
    <path class="cls-1" d="M134.11,17.71c-.3,0-.52-.08-.67-.23s-.22-.34-.22-.58v-.23c0-.24.07-.44.22-.59.14-.15.37-.22.67-.22s.54.07.67.22c.14.15.21.35.21.59v.23c0,.24-.07.44-.21.58-.14.15-.36.23-.67.23ZM133.39,29.18v-9.29h1.44v9.29h-1.44Z"/>
    <path class="cls-1" d="M139.33,29.18h-1.44v-9.29h1.44v1.51h.07c.23-.53.55-.95.96-1.26.41-.31.97-.47,1.67-.47.96,0,1.72.31,2.28.93.56.62.84,1.49.84,2.62v5.96h-1.44v-5.71c0-.83-.18-1.45-.53-1.87-.35-.42-.88-.63-1.58-.63-.38,0-.75.06-1.1.19-.35.13-.63.32-.85.58-.22.26-.32.59-.32.99v6.44Z"/>
    <path class="cls-1" d="M151.61,29.39c-.84,0-1.57-.2-2.2-.6-.62-.4-1.11-.97-1.46-1.69-.35-.73-.52-1.58-.52-2.56s.17-1.84.52-2.56c.35-.73.83-1.29,1.46-1.69.62-.4,1.36-.6,2.2-.6s1.54.2,2.14.58c.6.39,1.06.93,1.39,1.61.32.68.49,1.46.49,2.34v.68h-6.68v.43c0,.8.24,1.47.73,2.01.49.53,1.16.8,2.02.8.59,0,1.1-.14,1.54-.41.44-.28.78-.67,1.02-1.19l1.03.74c-.3.62-.77,1.13-1.4,1.53-.64.4-1.39.59-2.27.59ZM151.61,20.88c-.52,0-.98.12-1.38.36-.4.24-.72.57-.94,1-.23.43-.34.91-.34,1.45v.13h5.13v-.2c0-.55-.1-1.03-.31-1.44-.2-.41-.49-.73-.86-.95-.37-.23-.8-.34-1.3-.34Z"/>
    <path class="cls-1" d="M158.56,29.39c-.37,0-.65-.1-.83-.3-.18-.2-.27-.45-.27-.75v-.23c0-.31.09-.56.27-.76.18-.19.46-.29.83-.29s.66.1.84.29c.17.19.26.44.26.76v.23c0,.3-.09.55-.26.75-.17.2-.45.3-.84.3Z"/>
  </g>
  <g>
    <path class="cls-1" d="M58.44,167.15v1.33h-8.24v-1.55l4.1-3.78c.59-.54,1.08-1.12,1.48-1.73.4-.61.59-1.22.59-1.82v-.22c0-.7-.19-1.26-.58-1.69-.38-.43-.97-.65-1.75-.65s-1.35.2-1.76.61c-.4.41-.69.91-.85,1.51l-1.35-.52c.17-.49.41-.96.73-1.41.32-.45.75-.82,1.29-1.11s1.21-.43,2.02-.43,1.51.16,2.09.47c.58.31,1.01.74,1.31,1.29s.45,1.18.45,1.9c0,.65-.12,1.24-.35,1.78-.23.54-.56,1.05-.97,1.53-.41.48-.89.96-1.43,1.44l-3.38,3.04h6.61Z"/>
    <path class="cls-1" d="M62.1,168.69c-.37,0-.65-.1-.83-.3-.18-.2-.27-.45-.27-.75v-.23c0-.31.09-.56.27-.76.18-.19.46-.29.83-.29s.66.1.84.29c.17.19.26.44.26.76v.23c0,.3-.09.55-.26.75-.17.2-.45.3-.84.3Z"/>
    <path class="cls-1" d="M70.47,168.48v-12.56h4.21c1.04,0,1.95.23,2.73.69.77.46,1.37,1.16,1.79,2.09.42.93.63,2.1.63,3.5s-.21,2.57-.63,3.5c-.42.93-1.02,1.63-1.79,2.09-.77.46-1.68.69-2.73.69h-4.21ZM71.98,167.15h2.7c.7,0,1.31-.16,1.84-.47.53-.31.94-.76,1.24-1.34.3-.58.45-1.29.45-2.11v-2.05c0-.83-.15-1.54-.45-2.12-.3-.59-.71-1.03-1.24-1.34-.53-.31-1.14-.46-1.84-.46h-2.7v9.9Z"/>
    <path class="cls-1" d="M83.12,157.01c-.3,0-.52-.08-.67-.23s-.22-.34-.22-.58v-.23c0-.24.07-.44.22-.59.14-.15.37-.22.67-.22s.54.07.67.22c.14.15.21.35.21.59v.23c0,.24-.07.44-.21.58-.14.15-.36.23-.67.23ZM82.4,168.48v-9.29h1.44v9.29h-1.44Z"/>
    <path class="cls-1" d="M89.69,168.69c-.85,0-1.57-.17-2.16-.49-.59-.33-1.09-.77-1.51-1.32l1.03-.83c.36.44.76.79,1.21,1.04.44.25.96.38,1.55.38s1.09-.13,1.43-.4c.34-.26.51-.64.51-1.12,0-.36-.12-.67-.35-.94-.23-.26-.66-.44-1.27-.52l-.74-.11c-.56-.08-1.07-.23-1.53-.42-.46-.2-.81-.48-1.07-.85-.26-.37-.39-.84-.39-1.41,0-.92.31-1.61.95-2.06.63-.45,1.42-.67,2.37-.67.5,0,.95.06,1.34.18.39.12.74.29,1.05.51.31.22.59.49.85.8l-.95.86c-.2-.29-.5-.55-.9-.78-.4-.23-.89-.35-1.49-.35s-1.04.13-1.35.39c-.31.26-.47.61-.47,1.05s.15.77.46.98c.31.21.75.36,1.32.46l.72.11c1.03.16,1.76.45,2.2.89.43.44.65,1.01.65,1.72,0,.6-.14,1.12-.41,1.55-.28.43-.67.76-1.19,1-.52.23-1.13.35-1.84.35Z"/>
    <path class="cls-1" d="M99.12,168.69c-1.31,0-2.32-.44-3.05-1.31-.73-.88-1.09-2.06-1.09-3.55s.36-2.67,1.09-3.55,1.74-1.31,3.05-1.31c.92,0,1.67.2,2.23.61.56.41.98.93,1.24,1.57l-1.21.61c-.17-.48-.45-.85-.84-1.12-.39-.26-.87-.4-1.43-.4-.85,0-1.5.26-1.94.78s-.66,1.19-.66,2.01v1.58c0,.8.22,1.47.66,2,.44.53,1.08.79,1.94.79.59,0,1.09-.14,1.51-.41.42-.28.76-.68,1.01-1.21l1.04.7c-.3.66-.75,1.19-1.34,1.59-.59.4-1.33.6-2.22.6Z"/>
    <path class="cls-1" d="M110.44,168.48v-1.51h-.07c-.18.44-.47.84-.85,1.2-.39.35-.98.53-1.76.53-.95,0-1.71-.31-2.28-.93s-.85-1.49-.85-2.62v-5.96h1.44v5.71c0,.83.18,1.45.54,1.87s.89.63,1.58.63c.38,0,.75-.06,1.09-.19.34-.13.62-.32.84-.58.22-.26.32-.6.32-1.01v-6.43h1.44v9.29h-1.44Z"/>
    <path class="cls-1" d="M117.73,168.69c-.85,0-1.57-.17-2.16-.49-.59-.33-1.09-.77-1.51-1.32l1.03-.83c.36.44.76.79,1.21,1.04.44.25.96.38,1.55.38s1.09-.13,1.43-.4c.34-.26.51-.64.51-1.12,0-.36-.12-.67-.35-.94-.23-.26-.66-.44-1.27-.52l-.74-.11c-.56-.08-1.07-.23-1.53-.42-.46-.2-.81-.48-1.07-.85-.26-.37-.39-.84-.39-1.41,0-.92.31-1.61.95-2.06.63-.45,1.42-.67,2.37-.67.5,0,.95.06,1.34.18.39.12.74.29,1.05.51.31.22.59.49.85.8l-.95.86c-.2-.29-.5-.55-.9-.78-.4-.23-.89-.35-1.49-.35s-1.04.13-1.35.39c-.31.26-.47.61-.47,1.05s.15.77.46.98c.31.21.75.36,1.32.46l.72.11c1.03.16,1.76.45,2.2.89.43.44.65,1.01.65,1.72,0,.6-.14,1.12-.41,1.55-.28.43-.67.76-1.19,1-.52.23-1.13.35-1.84.35Z"/>
    <path class="cls-1" d="M126.39,168.69c-.85,0-1.57-.17-2.16-.49-.59-.33-1.09-.77-1.51-1.32l1.03-.83c.36.44.76.79,1.21,1.04.44.25.96.38,1.55.38s1.09-.13,1.43-.4c.34-.26.51-.64.51-1.12,0-.36-.12-.67-.35-.94-.23-.26-.66-.44-1.27-.52l-.74-.11c-.56-.08-1.07-.23-1.53-.42-.46-.2-.81-.48-1.07-.85-.26-.37-.39-.84-.39-1.41,0-.92.31-1.61.95-2.06.63-.45,1.42-.67,2.37-.67.5,0,.95.06,1.34.18.39.12.74.29,1.05.51.31.22.59.49.85.8l-.95.86c-.2-.29-.5-.55-.9-.78-.4-.23-.89-.35-1.49-.35s-1.04.13-1.35.39c-.31.26-.47.61-.47,1.05s.15.77.46.98c.31.21.75.36,1.32.46l.72.11c1.03.16,1.76.45,2.2.89.43.44.65,1.01.65,1.72,0,.6-.14,1.12-.41,1.55-.28.43-.67.76-1.19,1-.52.23-1.13.35-1.84.35Z"/>
    <path class="cls-1" d="M138.13,168.48l-2.48-9.29h1.4l.99,4.01.99,4.07h.04l1.13-4.07,1.17-4.01h1.28l1.21,4.01,1.15,4.07h.04l.95-4.07,1.01-4.01h1.35l-2.47,9.29h-1.78l-1.3-4.46-.81-2.83h-.04l-.79,2.83-1.3,4.46h-1.75Z"/>
    <path class="cls-1" d="M151.16,157.01c-.3,0-.52-.08-.67-.23s-.22-.34-.22-.58v-.23c0-.24.07-.44.22-.59.14-.15.37-.22.67-.22s.54.07.67.22c.14.15.21.35.21.59v.23c0,.24-.07.44-.21.58-.14.15-.36.23-.67.23ZM150.44,168.48v-9.29h1.44v9.29h-1.44Z"/>
    <path class="cls-1" d="M158.79,168.48h-1.8c-.49,0-.87-.14-1.13-.43-.26-.29-.4-.65-.4-1.1v-6.5h-1.53v-1.26h.86c.31,0,.52-.06.64-.19.11-.13.17-.34.17-.66v-1.73h1.3v2.57h2.03v1.26h-2.03v6.77h1.89v1.26Z"/>
    <path class="cls-1" d="M161.26,168.48v-13.32h1.44v5.54h.07c.23-.53.55-.95.96-1.26.41-.31.97-.47,1.67-.47.96,0,1.72.31,2.28.93.56.62.84,1.49.84,2.62v5.96h-1.44v-5.71c0-.83-.18-1.45-.53-1.87-.35-.42-.88-.63-1.58-.63-.38,0-.75.06-1.1.19-.35.13-.63.32-.85.58-.22.26-.32.59-.32.99v6.44h-1.44Z"/>
    <path class="cls-1" d="M179.2,165.51l2.25-6.32h1.42l-4.16,11.45c-.13.37-.28.66-.44.87-.16.21-.38.36-.64.44-.26.08-.62.13-1.08.13h-.74v-1.26h1.46l.7-1.98-3.47-9.65h1.44l2.23,6.32.43,1.51h.09l.5-1.51Z"/>
    <path class="cls-1" d="M188.13,168.69c-.83,0-1.56-.2-2.19-.6-.63-.4-1.12-.97-1.48-1.69-.35-.73-.53-1.58-.53-2.56s.18-1.84.53-2.56.85-1.29,1.48-1.69,1.36-.6,2.19-.6,1.56.2,2.19.6,1.12.97,1.48,1.69c.35.73.53,1.58.53,2.56s-.18,1.84-.53,2.56c-.35.73-.85,1.29-1.48,1.69-.63.4-1.36.6-2.19.6ZM188.13,167.42c.78,0,1.42-.24,1.91-.72.49-.48.74-1.21.74-2.2v-1.33c0-.98-.25-1.72-.74-2.2-.49-.48-1.13-.72-1.91-.72s-1.4.24-1.9.72c-.5.48-.75,1.21-.75,2.2v1.33c0,.98.25,1.72.75,2.2.5.48,1.13.72,1.9.72Z"/>
    <path class="cls-1" d="M200.43,168.48v-1.51h-.07c-.18.44-.47.84-.85,1.2-.39.35-.98.53-1.76.53-.95,0-1.71-.31-2.28-.93s-.85-1.49-.85-2.62v-5.96h1.44v5.71c0,.83.18,1.45.54,1.87s.89.63,1.58.63c.38,0,.75-.06,1.09-.19.34-.13.62-.32.84-.58.22-.26.32-.6.32-1.01v-6.43h1.44v9.29h-1.44Z"/>
    <path class="cls-1" d="M206.37,168.48h-1.44v-9.29h1.44v1.71h.09c.11-.3.28-.58.5-.84.23-.26.52-.47.88-.63.36-.16.79-.24,1.3-.24h.56v1.44h-.85c-.52,0-.96.07-1.33.21-.37.14-.66.32-.85.55-.2.23-.3.49-.3.79v6.3Z"/>
    <path class="cls-1" d="M217.22,168.48h-1.44v-9.29h1.44v1.51h.07c.23-.53.55-.95.96-1.26.41-.31.97-.47,1.67-.47.96,0,1.72.31,2.28.93.56.62.84,1.49.84,2.62v5.96h-1.44v-5.71c0-.83-.18-1.45-.53-1.87-.35-.42-.88-.63-1.58-.63-.38,0-.75.06-1.1.19-.35.13-.63.32-.85.58-.22.26-.32.59-.32.99v6.44Z"/>
    <path class="cls-1" d="M229.5,168.69c-.84,0-1.57-.2-2.2-.6-.62-.4-1.11-.97-1.46-1.69-.35-.73-.52-1.58-.52-2.56s.17-1.84.52-2.56c.35-.73.83-1.29,1.46-1.69.62-.4,1.36-.6,2.2-.6s1.54.2,2.14.58c.6.39,1.06.93,1.39,1.61.32.68.49,1.46.49,2.34v.68h-6.68v.43c0,.8.24,1.47.73,2.01.49.53,1.16.8,2.02.8.59,0,1.1-.14,1.54-.41.44-.28.78-.67,1.02-1.19l1.03.74c-.3.62-.77,1.13-1.4,1.53-.64.4-1.39.59-2.27.59ZM229.5,160.18c-.52,0-.98.12-1.38.36-.4.24-.72.57-.94,1-.23.43-.34.91-.34,1.45v.13h5.13v-.2c0-.55-.1-1.03-.31-1.44-.2-.41-.49-.73-.86-.95-.37-.23-.8-.34-1.3-.34Z"/>
    <path class="cls-1" d="M236.6,157.01c-.3,0-.52-.08-.67-.23s-.22-.34-.22-.58v-.23c0-.24.07-.44.22-.59.14-.15.37-.22.67-.22s.54.07.67.22c.14.15.21.35.21.59v.23c0,.24-.07.44-.21.58-.14.15-.36.23-.67.23ZM235.88,168.48v-9.29h1.44v9.29h-1.44Z"/>
    <path class="cls-1" d="M248.21,169.5c0,.64-.17,1.16-.5,1.58s-.84.72-1.5.92c-.67.2-1.5.3-2.49.3s-1.74-.09-2.35-.27c-.61-.18-1.05-.44-1.32-.78-.28-.34-.41-.75-.41-1.23,0-.5.13-.9.4-1.19.26-.29.62-.49,1.08-.61v-.2c-.26-.13-.47-.3-.61-.51s-.22-.47-.22-.78c0-.47.15-.82.45-1.07.3-.25.68-.43,1.15-.55v-.07c-.55-.26-.98-.64-1.29-1.13-.31-.49-.46-1.06-.46-1.71s.14-1.19.43-1.67c.29-.48.7-.85,1.22-1.12.53-.27,1.14-.4,1.84-.4.34,0,.65.03.94.09s.57.15.82.27v-.16c0-.36.08-.66.25-.89.17-.23.44-.35.83-.35h1.39v1.26h-1.76v.59c.34.29.6.64.78,1.04.19.41.28.86.28,1.35,0,.62-.14,1.18-.43,1.67-.29.49-.7.86-1.22,1.13-.53.27-1.15.4-1.85.4-.16,0-.31,0-.47-.03s-.3-.04-.43-.06c-.3.08-.58.21-.84.37-.26.16-.39.39-.39.67s.13.46.4.56c.26.1.61.14,1.03.14h1.98c1.15,0,1.99.22,2.51.66.52.44.78,1.04.78,1.81ZM246.86,169.61c0-.37-.14-.67-.42-.89-.28-.22-.78-.33-1.5-.33h-3.1c-.3.13-.52.3-.66.51-.14.21-.21.46-.21.75,0,.41.15.76.46,1.04s.82.43,1.56.43h1.33c.8,0,1.43-.13,1.87-.38.44-.25.67-.63.67-1.13ZM243.64,164.23c.61,0,1.1-.15,1.46-.44s.54-.75.54-1.36v-.5c0-.61-.18-1.06-.54-1.36-.36-.29-.85-.44-1.46-.44s-1.1.15-1.46.44c-.36.29-.54.75-.54,1.36v.5c0,.61.18,1.06.54,1.36s.85.44,1.46.44Z"/>
    <path class="cls-1" d="M249.89,168.48v-13.32h1.44v5.54h.07c.23-.53.55-.95.96-1.26.41-.31.97-.47,1.67-.47.96,0,1.72.31,2.28.93.56.62.84,1.49.84,2.62v5.96h-1.44v-5.71c0-.83-.18-1.45-.53-1.87-.35-.42-.88-.63-1.58-.63-.38,0-.75.06-1.1.19-.35.13-.63.32-.85.58-.22.26-.32.59-.32.99v6.44h-1.44Z"/>
    <path class="cls-1" d="M260.11,168.48v-13.32h1.44v5.54h.07c.24-.59.59-1.02,1.06-1.31.47-.28,1.02-.42,1.66-.42.78,0,1.45.2,2.02.59s1,.96,1.31,1.68.46,1.59.46,2.58-.15,1.84-.46,2.57-.74,1.3-1.31,1.69-1.24.59-2.02.59c-.64,0-1.18-.14-1.63-.43-.45-.29-.81-.72-1.09-1.3h-.07v1.51h-1.44ZM263.95,167.4c.82,0,1.46-.25,1.93-.77.47-.51.7-1.18.7-2.01v-1.58c0-.83-.23-1.5-.7-2.01-.47-.51-1.11-.77-1.93-.77-.43,0-.83.08-1.2.23-.37.16-.66.37-.87.63-.22.26-.32.57-.32.92v3.46c0,.4.11.74.32,1.02.22.28.51.5.87.65.37.15.77.23,1.2.23Z"/>
    <path class="cls-1" d="M274.06,168.69c-.83,0-1.56-.2-2.19-.6-.63-.4-1.12-.97-1.48-1.69-.35-.73-.53-1.58-.53-2.56s.18-1.84.53-2.56.85-1.29,1.48-1.69,1.36-.6,2.19-.6,1.56.2,2.19.6,1.12.97,1.48,1.69c.35.73.53,1.58.53,2.56s-.18,1.84-.53,2.56c-.35.73-.85,1.29-1.48,1.69-.63.4-1.36.6-2.19.6ZM274.06,167.42c.78,0,1.42-.24,1.91-.72.49-.48.74-1.21.74-2.2v-1.33c0-.98-.25-1.72-.74-2.2-.49-.48-1.13-.72-1.91-.72s-1.4.24-1.9.72c-.5.48-.75,1.21-.75,2.2v1.33c0,.98.25,1.72.75,2.2.5.48,1.13.72,1.9.72Z"/>
    <path class="cls-1" d="M282.07,168.48h-1.44v-9.29h1.44v1.71h.09c.11-.3.28-.58.5-.84.23-.26.52-.47.88-.63.36-.16.79-.24,1.3-.24h.56v1.44h-.85c-.52,0-.96.07-1.33.21-.37.14-.66.32-.85.55-.2.23-.3.49-.3.79v6.3Z"/>
    <path class="cls-1" d="M290.03,168.69c-.85,0-1.57-.17-2.16-.49-.59-.33-1.09-.77-1.51-1.32l1.03-.83c.36.44.76.79,1.21,1.04.44.25.96.38,1.55.38s1.09-.13,1.43-.4c.34-.26.51-.64.51-1.12,0-.36-.12-.67-.35-.94-.23-.26-.66-.44-1.27-.52l-.74-.11c-.56-.08-1.07-.23-1.53-.42-.46-.2-.81-.48-1.07-.85-.26-.37-.39-.84-.39-1.41,0-.92.31-1.61.95-2.06.63-.45,1.42-.67,2.37-.67.5,0,.95.06,1.34.18.39.12.74.29,1.05.51.31.22.59.49.85.8l-.95.86c-.2-.29-.5-.55-.9-.78-.4-.23-.89-.35-1.49-.35s-1.04.13-1.35.39c-.31.26-.47.61-.47,1.05s.15.77.46.98c.31.21.75.36,1.32.46l.72.11c1.03.16,1.76.45,2.2.89.43.44.65,1.01.65,1.72,0,.6-.14,1.12-.41,1.55-.28.43-.67.76-1.19,1-.52.23-1.13.35-1.84.35Z"/>
    <path class="cls-1" d="M300.97,157.01c-.3,0-.52-.08-.67-.23s-.22-.34-.22-.58v-.23c0-.24.07-.44.22-.59.14-.15.37-.22.67-.22s.54.07.67.22c.14.15.21.35.21.59v.23c0,.24-.07.44-.21.58-.14.15-.36.23-.67.23ZM300.25,168.48v-9.29h1.44v9.29h-1.44Z"/>
    <path class="cls-1" d="M306.19,168.48h-1.44v-9.29h1.44v1.51h.07c.23-.53.55-.95.96-1.26.41-.31.97-.47,1.67-.47.96,0,1.72.31,2.28.93.56.62.84,1.49.84,2.62v5.96h-1.44v-5.71c0-.83-.18-1.45-.53-1.87-.35-.42-.88-.63-1.58-.63-.38,0-.75.06-1.1.19-.35.13-.63.32-.85.58-.22.26-.32.59-.32.99v6.44Z"/>
    <path class="cls-1" d="M323.08,168.48h-1.8c-.49,0-.87-.14-1.13-.43-.26-.29-.4-.65-.4-1.1v-6.5h-1.53v-1.26h.86c.31,0,.52-.06.64-.19.11-.13.17-.34.17-.66v-1.73h1.3v2.57h2.03v1.26h-2.03v6.77h1.89v1.26Z"/>
    <path class="cls-1" d="M325.54,168.48v-13.32h1.44v5.54h.07c.23-.53.55-.95.96-1.26.41-.31.97-.47,1.67-.47.96,0,1.72.31,2.28.93.56.62.84,1.49.84,2.62v5.96h-1.44v-5.71c0-.83-.18-1.45-.53-1.87-.35-.42-.88-.63-1.58-.63-.38,0-.75.06-1.1.19-.35.13-.63.32-.85.58-.22.26-.32.59-.32.99v6.44h-1.44Z"/>
    <path class="cls-1" d="M339.26,168.69c-.84,0-1.57-.2-2.2-.6-.62-.4-1.11-.97-1.46-1.69-.35-.73-.52-1.58-.52-2.56s.17-1.84.52-2.56c.35-.73.83-1.29,1.46-1.69.62-.4,1.36-.6,2.2-.6s1.54.2,2.14.58c.6.39,1.06.93,1.39,1.61.32.68.49,1.46.49,2.34v.68h-6.68v.43c0,.8.24,1.47.73,2.01.49.53,1.16.8,2.02.8.59,0,1.1-.14,1.54-.41.44-.28.78-.67,1.02-1.19l1.03.74c-.3.62-.77,1.13-1.4,1.53-.64.4-1.39.59-2.27.59ZM339.26,160.18c-.52,0-.98.12-1.38.36-.4.24-.72.57-.94,1-.23.43-.34.91-.34,1.45v.13h5.13v-.2c0-.55-.1-1.03-.31-1.44-.2-.41-.49-.73-.86-.95-.37-.23-.8-.34-1.3-.34Z"/>
    <path class="cls-1" d="M352.7,168.48h-1.28c-.49,0-.87-.14-1.13-.42-.26-.28-.4-.64-.4-1.07v-11.83h1.44v12.06h1.37v1.26Z"/>
    <path class="cls-1" d="M355.51,157.01c-.3,0-.52-.08-.67-.23s-.22-.34-.22-.58v-.23c0-.24.07-.44.22-.59.14-.15.37-.22.67-.22s.54.07.67.22c.14.15.21.35.21.59v.23c0,.24-.07.44-.21.58-.14.15-.36.23-.67.23ZM354.79,168.48v-9.29h1.44v9.29h-1.44Z"/>
    <path class="cls-1" d="M360.73,168.48h-1.44v-9.29h1.44v1.51h.07c.23-.53.55-.95.96-1.26.41-.31.97-.47,1.67-.47.96,0,1.72.31,2.28.93.56.62.84,1.49.84,2.62v5.96h-1.44v-5.71c0-.83-.18-1.45-.53-1.87-.35-.42-.88-.63-1.58-.63-.38,0-.75.06-1.1.19-.35.13-.63.32-.85.58-.22.26-.32.59-.32.99v6.44Z"/>
    <path class="cls-1" d="M373.01,168.69c-.84,0-1.57-.2-2.2-.6-.62-.4-1.11-.97-1.46-1.69-.35-.73-.52-1.58-.52-2.56s.17-1.84.52-2.56c.35-.73.83-1.29,1.46-1.69.62-.4,1.36-.6,2.2-.6s1.54.2,2.14.58c.6.39,1.06.93,1.39,1.61.32.68.49,1.46.49,2.34v.68h-6.68v.43c0,.8.24,1.47.73,2.01.49.53,1.16.8,2.02.8.59,0,1.1-.14,1.54-.41.44-.28.78-.67,1.02-1.19l1.03.74c-.3.62-.77,1.13-1.4,1.53-.64.4-1.39.59-2.27.59ZM373.01,160.18c-.52,0-.98.12-1.38.36-.4.24-.72.57-.94,1-.23.43-.34.91-.34,1.45v.13h5.13v-.2c0-.55-.1-1.03-.31-1.44-.2-.41-.49-.73-.86-.95-.37-.23-.8-.34-1.3-.34Z"/>
    <path class="cls-1" d="M379.96,168.69c-.37,0-.65-.1-.83-.3-.18-.2-.27-.45-.27-.75v-.23c0-.31.09-.56.27-.76.18-.19.46-.29.83-.29s.66.1.84.29c.17.19.26.44.26.76v.23c0,.3-.09.55-.26.75-.17.2-.45.3-.84.3Z"/>
  </g>
  <g>
    <path class="cls-1" d="M46.18,274.54h1.37c.85,0,1.49-.2,1.92-.59.43-.4.64-.89.64-1.49v-.13c0-.66-.21-1.15-.62-1.48-.41-.33-.96-.5-1.63-.5s-1.18.14-1.58.42c-.41.28-.74.66-1.01,1.14l-1.12-.86c.22-.34.49-.66.81-.97.32-.31.73-.57,1.21-.77s1.06-.31,1.73-.31c.71,0,1.35.12,1.93.37.58.25,1.04.6,1.38,1.07.34.47.51,1.04.51,1.73,0,.8-.23,1.45-.7,1.94-.47.49-1.04.82-1.71.99v.07c.46.08.88.26,1.29.51.4.26.73.61.98,1.04s.38.97.38,1.61c0,.72-.18,1.35-.53,1.9-.35.55-.85.98-1.49,1.29s-1.39.47-2.24.47c-.72,0-1.34-.11-1.85-.31-.51-.21-.94-.48-1.3-.8-.35-.32-.66-.67-.93-1.03l1.13-.86c.32.49.7.89,1.12,1.2.43.31,1.02.46,1.79.46.89,0,1.56-.2,2.02-.61s.68-.98.68-1.71v-.14c0-.74-.23-1.32-.68-1.72-.46-.4-1.13-.6-2.02-.6h-1.48v-1.31Z"/>
    <path class="cls-1" d="M56.1,281.99c-.37,0-.65-.1-.83-.3-.18-.2-.27-.45-.27-.75v-.23c0-.31.09-.56.27-.76.18-.19.46-.29.83-.29s.66.1.84.29c.17.19.26.44.26.76v.23c0,.3-.09.55-.26.75-.17.2-.45.3-.84.3Z"/>
    <path class="cls-1" d="M65.98,281.78h-1.51v-12.56h7.49v1.33h-5.98v4.21h5.45v1.33h-5.45v5.69Z"/>
    <path class="cls-1" d="M75.1,270.31c-.3,0-.52-.08-.67-.23-.14-.15-.22-.34-.22-.58v-.23c0-.24.07-.43.22-.58s.37-.23.67-.23.54.08.67.23c.14.15.21.34.21.58v.23c0,.24-.07.44-.21.58-.14.15-.36.23-.67.23ZM74.38,281.78v-9.29h1.44v9.29h-1.44Z"/>
    <path class="cls-1" d="M80.32,281.78h-1.44v-9.29h1.44v1.51h.07c.23-.53.55-.95.96-1.26.41-.31.97-.47,1.67-.47.96,0,1.72.31,2.28.93.56.62.84,1.49.84,2.62v5.96h-1.44v-5.71c0-.83-.18-1.45-.53-1.87s-.88-.63-1.58-.63c-.38,0-.75.06-1.1.19-.35.13-.63.32-.85.58-.22.26-.32.59-.32.99v6.44Z"/>
    <path class="cls-1" d="M95.05,281.78v-1.51h-.07c-.28.58-.64,1.01-1.09,1.3-.45.29-.99.43-1.63.43-.77,0-1.44-.2-2.01-.59-.57-.4-1.01-.96-1.31-1.69-.31-.73-.46-1.59-.46-2.57s.15-1.86.46-2.58c.31-.73.74-1.29,1.31-1.68.57-.4,1.24-.59,2.01-.59.64,0,1.19.14,1.66.42.47.28.82.72,1.06,1.3h.07v-5.54h1.44v13.32h-1.44ZM92.65,280.7c.44,0,.85-.08,1.21-.22.36-.15.65-.37.86-.65.22-.28.32-.62.32-1.02v-3.46c0-.35-.11-.65-.32-.92s-.5-.47-.86-.63c-.36-.16-.76-.23-1.21-.23-.8,0-1.44.25-1.92.76-.47.51-.71,1.18-.71,2.01v1.58c0,.83.24,1.5.71,2.01.47.51,1.11.76,1.92.76Z"/>
    <path class="cls-1" d="M111.36,281.78h-.81c-.38,0-.7-.08-.94-.24-.24-.16-.41-.39-.52-.67-.11-.29-.16-.62-.16-.99v-.13l.56.52h-.63c-.19.56-.52.99-1,1.29s-1.03.44-1.68.44c-.98,0-1.75-.25-2.29-.76s-.82-1.19-.82-2.05c0-.59.14-1.08.43-1.49.29-.4.72-.71,1.3-.92s1.32-.31,2.22-.31h1.84v-.92c0-.66-.18-1.16-.54-1.51-.36-.35-.91-.52-1.66-.52-.55,0-1.02.13-1.4.38-.38.25-.7.59-.95,1.01l-.86-.81c.25-.49.65-.92,1.21-1.28.55-.36,1.25-.54,2.09-.54,1.12,0,1.99.28,2.62.83s.94,1.32.94,2.3v5.11h1.06v1.26ZM108.85,277.55h-1.91c-.82,0-1.42.12-1.8.36-.38.24-.58.59-.58,1.04v.38c0,.46.17.81.5,1.06.34.25.78.38,1.33.38.48,0,.9-.08,1.27-.23.37-.15.65-.35.86-.61s.31-.54.31-.86v-1.53Z"/>
    <path class="cls-1" d="M117.66,285.38v-12.89h1.44v1.51h.07c.24-.59.59-1.02,1.06-1.3s1.02-.42,1.66-.42c.78,0,1.45.2,2.02.59.56.4,1,.96,1.31,1.68.31.73.46,1.59.46,2.58s-.15,1.84-.46,2.57c-.31.73-.74,1.3-1.31,1.69-.56.4-1.24.59-2.02.59-.64,0-1.18-.14-1.63-.43-.45-.29-.81-.72-1.09-1.3h-.07v5.11h-1.44ZM121.49,280.7c.82,0,1.46-.25,1.93-.76.47-.51.7-1.18.7-2.01v-1.58c0-.83-.23-1.5-.7-2.01-.47-.51-1.11-.76-1.93-.76-.43,0-.83.08-1.2.23-.37.16-.66.37-.87.63s-.32.57-.32.92v3.46c0,.4.11.74.32,1.02.22.28.51.5.87.65.37.15.77.22,1.2.22Z"/>
    <path class="cls-1" d="M135.66,281.78h-.81c-.38,0-.7-.08-.94-.24-.24-.16-.41-.39-.52-.67-.11-.29-.16-.62-.16-.99v-.13l.56.52h-.63c-.19.56-.52.99-1,1.29s-1.03.44-1.68.44c-.98,0-1.75-.25-2.29-.76s-.82-1.19-.82-2.05c0-.59.14-1.08.43-1.49.29-.4.72-.71,1.3-.92s1.32-.31,2.22-.31h1.84v-.92c0-.66-.18-1.16-.54-1.51-.36-.35-.91-.52-1.66-.52-.55,0-1.02.13-1.4.38-.38.25-.7.59-.95,1.01l-.86-.81c.25-.49.65-.92,1.21-1.28.55-.36,1.25-.54,2.09-.54,1.12,0,1.99.28,2.62.83s.94,1.32.94,2.3v5.11h1.06v1.26ZM133.15,277.55h-1.91c-.82,0-1.42.12-1.8.36-.38.24-.58.59-.58,1.04v.38c0,.46.17.81.5,1.06.34.25.78.38,1.33.38.48,0,.9-.08,1.27-.23.37-.15.65-.35.86-.61s.31-.54.31-.86v-1.53Z"/>
    <path class="cls-1" d="M139.15,281.78h-1.44v-9.29h1.44v1.71h.09c.11-.3.28-.58.5-.84s.52-.47.88-.63c.36-.16.79-.24,1.3-.24h.56v1.44h-.85c-.52,0-.96.07-1.33.21-.37.14-.66.32-.85.55-.2.23-.3.49-.3.79v6.3Z"/>
    <path class="cls-1" d="M148.24,281.78h-1.8c-.49,0-.87-.14-1.13-.43-.26-.29-.4-.65-.4-1.1v-6.5h-1.53v-1.26h.86c.31,0,.52-.06.64-.19.11-.13.17-.35.17-.66v-1.73h1.3v2.57h2.03v1.26h-2.03v6.77h1.89v1.26Z"/>
    <path class="cls-1" d="M152.14,281.78h-1.44v-9.29h1.44v1.51h.07c.23-.53.55-.95.96-1.26.41-.31.97-.47,1.67-.47.96,0,1.72.31,2.28.93.56.62.84,1.49.84,2.62v5.96h-1.44v-5.71c0-.83-.18-1.45-.53-1.87s-.88-.63-1.58-.63c-.38,0-.75.06-1.1.19-.35.13-.63.32-.85.58-.22.26-.32.59-.32.99v6.44Z"/>
    <path class="cls-1" d="M164.42,281.99c-.84,0-1.57-.2-2.2-.6-.62-.4-1.11-.97-1.46-1.69-.35-.73-.52-1.58-.52-2.56s.17-1.84.52-2.57c.35-.73.83-1.29,1.46-1.69.62-.4,1.36-.6,2.2-.6s1.54.2,2.14.58c.6.39,1.06.93,1.39,1.61.32.68.49,1.46.49,2.34v.68h-6.68v.43c0,.8.24,1.47.73,2.01.49.53,1.16.8,2.02.8.59,0,1.1-.14,1.54-.41s.78-.67,1.02-1.19l1.03.74c-.3.62-.77,1.13-1.4,1.53-.64.4-1.39.59-2.27.59ZM164.42,273.48c-.52,0-.98.12-1.38.36-.4.24-.72.57-.94,1-.23.43-.34.91-.34,1.45v.13h5.13v-.2c0-.55-.1-1.03-.31-1.44-.2-.41-.49-.73-.86-.95-.37-.23-.8-.34-1.3-.34Z"/>
    <path class="cls-1" d="M172.25,281.78h-1.44v-9.29h1.44v1.71h.09c.11-.3.28-.58.5-.84s.52-.47.88-.63c.36-.16.79-.24,1.3-.24h.56v1.44h-.85c-.52,0-.96.07-1.33.21-.37.14-.66.32-.85.55-.2.23-.3.49-.3.79v6.3Z"/>
    <path class="cls-1" d="M189.22,281.78h-.81c-.38,0-.7-.08-.94-.24-.24-.16-.41-.39-.52-.67-.11-.29-.16-.62-.16-.99v-.13l.56.52h-.63c-.19.56-.52.99-1,1.29s-1.03.44-1.68.44c-.98,0-1.75-.25-2.29-.76s-.82-1.19-.82-2.05c0-.59.14-1.08.43-1.49.29-.4.72-.71,1.3-.92s1.32-.31,2.22-.31h1.84v-.92c0-.66-.18-1.16-.54-1.51-.36-.35-.91-.52-1.66-.52-.55,0-1.02.13-1.4.38-.38.25-.7.59-.95,1.01l-.86-.81c.25-.49.65-.92,1.21-1.28.55-.36,1.25-.54,2.09-.54,1.12,0,1.99.28,2.62.83s.94,1.32.94,2.3v5.11h1.06v1.26ZM186.72,277.55h-1.91c-.82,0-1.42.12-1.8.36-.38.24-.58.59-.58,1.04v.38c0,.46.17.81.5,1.06.34.25.78.38,1.33.38.48,0,.9-.08,1.27-.23.37-.15.65-.35.86-.61s.31-.54.31-.86v-1.53Z"/>
    <path class="cls-1" d="M195.13,281.78h-1.8c-.49,0-.87-.14-1.13-.43-.26-.29-.4-.65-.4-1.1v-6.5h-1.53v-1.26h.86c.31,0,.52-.06.64-.19.11-.13.17-.35.17-.66v-1.73h1.3v2.57h2.03v1.26h-2.03v6.77h1.89v1.26Z"/>
    <path class="cls-1" d="M205.69,281.78h-1.8c-.49,0-.87-.14-1.13-.43-.26-.29-.4-.65-.4-1.1v-6.5h-1.53v-1.26h.86c.31,0,.52-.06.64-.19.11-.13.17-.35.17-.66v-1.73h1.3v2.57h2.03v1.26h-2.03v6.77h1.89v1.26Z"/>
    <path class="cls-1" d="M208.16,281.78v-13.32h1.44v5.54h.07c.23-.53.55-.95.96-1.26.41-.31.97-.47,1.67-.47.96,0,1.72.31,2.28.93.56.62.84,1.49.84,2.62v5.96h-1.44v-5.71c0-.83-.18-1.45-.53-1.87s-.88-.63-1.58-.63c-.38,0-.75.06-1.1.19-.35.13-.63.32-.85.58-.22.26-.32.59-.32.99v6.44h-1.44Z"/>
    <path class="cls-1" d="M221.87,281.99c-.84,0-1.57-.2-2.2-.6-.62-.4-1.11-.97-1.46-1.69-.35-.73-.52-1.58-.52-2.56s.17-1.84.52-2.57c.35-.73.83-1.29,1.46-1.69.62-.4,1.36-.6,2.2-.6s1.54.2,2.14.58c.6.39,1.06.93,1.39,1.61.32.68.49,1.46.49,2.34v.68h-6.68v.43c0,.8.24,1.47.73,2.01.49.53,1.16.8,2.02.8.59,0,1.1-.14,1.54-.41s.78-.67,1.02-1.19l1.03.74c-.3.62-.77,1.13-1.4,1.53-.64.4-1.39.59-2.27.59ZM221.87,273.48c-.52,0-.98.12-1.38.36-.4.24-.72.57-.94,1-.23.43-.34.91-.34,1.45v.13h5.13v-.2c0-.55-.1-1.03-.31-1.44-.2-.41-.49-.73-.86-.95-.37-.23-.8-.34-1.3-.34Z"/>
    <path class="cls-1" d="M236.02,281.99c-.83,0-1.56-.2-2.19-.6-.63-.4-1.12-.97-1.48-1.69-.35-.73-.53-1.58-.53-2.56s.18-1.84.53-2.57c.35-.73.85-1.29,1.48-1.69.63-.4,1.36-.6,2.19-.6s1.56.2,2.19.6c.63.4,1.12.97,1.48,1.69.35.73.53,1.58.53,2.57s-.18,1.84-.53,2.56c-.35.73-.85,1.29-1.48,1.69-.63.4-1.36.6-2.19.6ZM236.02,280.72c.78,0,1.42-.24,1.91-.72.49-.48.74-1.21.74-2.2v-1.33c0-.98-.25-1.72-.74-2.2-.49-.48-1.13-.72-1.91-.72s-1.4.24-1.9.72c-.5.48-.75,1.21-.75,2.2v1.33c0,.98.25,1.72.75,2.2.5.48,1.13.72,1.9.72Z"/>
    <path class="cls-1" d="M246.44,281.78h-1.8c-.49,0-.87-.14-1.13-.43-.26-.29-.4-.65-.4-1.1v-6.5h-1.53v-1.26h.86c.31,0,.52-.06.64-.19.11-.13.17-.35.17-.66v-1.73h1.3v2.57h2.03v1.26h-2.03v6.77h1.89v1.26Z"/>
    <path class="cls-1" d="M248.91,281.78v-13.32h1.44v5.54h.07c.23-.53.55-.95.96-1.26.41-.31.97-.47,1.67-.47.96,0,1.72.31,2.28.93.56.62.84,1.49.84,2.62v5.96h-1.44v-5.71c0-.83-.18-1.45-.53-1.87s-.88-.63-1.58-.63c-.38,0-.75.06-1.1.19-.35.13-.63.32-.85.58-.22.26-.32.59-.32.99v6.44h-1.44Z"/>
    <path class="cls-1" d="M262.63,281.99c-.84,0-1.57-.2-2.2-.6-.62-.4-1.11-.97-1.46-1.69-.35-.73-.52-1.58-.52-2.56s.17-1.84.52-2.57c.35-.73.83-1.29,1.46-1.69.62-.4,1.36-.6,2.2-.6s1.54.2,2.14.58c.6.39,1.06.93,1.39,1.61.32.68.49,1.46.49,2.34v.68h-6.68v.43c0,.8.24,1.47.73,2.01.49.53,1.16.8,2.02.8.59,0,1.1-.14,1.54-.41s.78-.67,1.02-1.19l1.03.74c-.3.62-.77,1.13-1.4,1.53-.64.4-1.39.59-2.27.59ZM262.63,273.48c-.52,0-.98.12-1.38.36-.4.24-.72.57-.94,1-.23.43-.34.91-.34,1.45v.13h5.13v-.2c0-.55-.1-1.03-.31-1.44-.2-.41-.49-.73-.86-.95-.37-.23-.8-.34-1.3-.34Z"/>
    <path class="cls-1" d="M270.46,281.78h-1.44v-9.29h1.44v1.71h.09c.11-.3.28-.58.5-.84s.52-.47.88-.63c.36-.16.79-.24,1.3-.24h.56v1.44h-.85c-.52,0-.96.07-1.33.21-.37.14-.66.32-.85.55-.2.23-.3.49-.3.79v6.3Z"/>
    <path class="cls-1" d="M283.36,281.99c-.84,0-1.57-.2-2.2-.6-.62-.4-1.11-.97-1.46-1.69-.35-.73-.52-1.58-.52-2.56s.17-1.84.52-2.57c.35-.73.83-1.29,1.46-1.69.62-.4,1.36-.6,2.2-.6s1.54.2,2.14.58c.6.39,1.06.93,1.39,1.61.32.68.49,1.46.49,2.34v.68h-6.68v.43c0,.8.24,1.47.73,2.01.49.53,1.16.8,2.02.8.59,0,1.1-.14,1.54-.41s.78-.67,1.02-1.19l1.03.74c-.3.62-.77,1.13-1.4,1.53-.64.4-1.39.59-2.27.59ZM283.36,273.48c-.52,0-.98.12-1.38.36-.4.24-.72.57-.94,1-.23.43-.34.91-.34,1.45v.13h5.13v-.2c0-.55-.1-1.03-.31-1.44-.2-.41-.49-.73-.86-.95-.37-.23-.8-.34-1.3-.34Z"/>
    <path class="cls-1" d="M291.19,281.78h-1.44v-9.29h1.44v1.51h.07c.23-.53.55-.95.96-1.26.41-.31.97-.47,1.67-.47.96,0,1.72.31,2.28.93.56.62.84,1.49.84,2.62v5.96h-1.44v-5.71c0-.83-.18-1.45-.53-1.87s-.88-.63-1.58-.63c-.38,0-.75.06-1.1.19-.35.13-.63.32-.85.58-.22.26-.32.59-.32.99v6.44Z"/>
    <path class="cls-1" d="M305.92,281.78v-1.51h-.07c-.28.58-.64,1.01-1.09,1.3-.45.29-.99.43-1.63.43-.77,0-1.44-.2-2.01-.59-.57-.4-1.01-.96-1.31-1.69-.31-.73-.46-1.59-.46-2.57s.15-1.86.46-2.58c.31-.73.74-1.29,1.31-1.68.57-.4,1.24-.59,2.01-.59.64,0,1.19.14,1.66.42.47.28.82.72,1.06,1.3h.07v-5.54h1.44v13.32h-1.44ZM303.52,280.7c.44,0,.85-.08,1.21-.22.36-.15.65-.37.86-.65.22-.28.32-.62.32-1.02v-3.46c0-.35-.11-.65-.32-.92s-.5-.47-.86-.63c-.36-.16-.76-.23-1.21-.23-.8,0-1.44.25-1.92.76-.47.51-.71,1.18-.71,2.01v1.58c0,.83.24,1.5.71,2.01.47.51,1.11.76,1.92.76Z"/>
    <path class="cls-1" d="M318.17,281.99c-.83,0-1.56-.2-2.19-.6-.63-.4-1.12-.97-1.48-1.69-.35-.73-.53-1.58-.53-2.56s.18-1.84.53-2.57c.35-.73.85-1.29,1.48-1.69.63-.4,1.36-.6,2.19-.6s1.56.2,2.19.6c.63.4,1.12.97,1.48,1.69.35.73.53,1.58.53,2.57s-.18,1.84-.53,2.56c-.35.73-.85,1.29-1.48,1.69-.63.4-1.36.6-2.19.6ZM318.17,280.72c.78,0,1.42-.24,1.91-.72.49-.48.74-1.21.74-2.2v-1.33c0-.98-.25-1.72-.74-2.2-.49-.48-1.13-.72-1.91-.72s-1.4.24-1.9.72c-.5.48-.75,1.21-.75,2.2v1.33c0,.98.25,1.72.75,2.2.5.48,1.13.72,1.9.72Z"/>
    <path class="cls-1" d="M325.14,281.78v-8.03h-1.51v-1.26h1.51v-1.87c0-.64.17-1.15.5-1.56s.85-.6,1.53-.6h1.4v1.26h-2v2.77h2v1.26h-2v8.03h-1.44Z"/>
    <path class="cls-1" d="M338.57,281.78h-1.8c-.49,0-.87-.14-1.13-.43-.26-.29-.4-.65-.4-1.1v-6.5h-1.53v-1.26h.86c.31,0,.52-.06.64-.19.11-.13.17-.35.17-.66v-1.73h1.3v2.57h2.03v1.26h-2.03v6.77h1.89v1.26Z"/>
    <path class="cls-1" d="M341.03,281.78v-13.32h1.44v5.54h.07c.23-.53.55-.95.96-1.26.41-.31.97-.47,1.67-.47.96,0,1.72.31,2.28.93.56.62.84,1.49.84,2.62v5.96h-1.44v-5.71c0-.83-.18-1.45-.53-1.87s-.88-.63-1.58-.63c-.38,0-.75.06-1.1.19-.35.13-.63.32-.85.58-.22.26-.32.59-.32.99v6.44h-1.44Z"/>
    <path class="cls-1" d="M354.75,281.99c-.84,0-1.57-.2-2.2-.6-.62-.4-1.11-.97-1.46-1.69-.35-.73-.52-1.58-.52-2.56s.17-1.84.52-2.57c.35-.73.83-1.29,1.46-1.69.62-.4,1.36-.6,2.2-.6s1.54.2,2.14.58c.6.39,1.06.93,1.39,1.61.32.68.49,1.46.49,2.34v.68h-6.68v.43c0,.8.24,1.47.73,2.01.49.53,1.16.8,2.02.8.59,0,1.1-.14,1.54-.41s.78-.67,1.02-1.19l1.03.74c-.3.62-.77,1.13-1.4,1.53-.64.4-1.39.59-2.27.59ZM354.75,273.48c-.52,0-.98.12-1.38.36-.4.24-.72.57-.94,1-.23.43-.34.91-.34,1.45v.13h5.13v-.2c0-.55-.1-1.03-.31-1.44-.2-.41-.49-.73-.86-.95-.37-.23-.8-.34-1.3-.34Z"/>
    <path class="cls-1" d="M368.19,281.78h-1.28c-.49,0-.87-.14-1.13-.42-.26-.28-.4-.64-.4-1.07v-11.83h1.44v12.06h1.37v1.26Z"/>
    <path class="cls-1" d="M371,270.31c-.3,0-.52-.08-.67-.23-.14-.15-.22-.34-.22-.58v-.23c0-.24.07-.43.22-.58s.37-.23.67-.23.54.08.67.23c.14.15.21.34.21.58v.23c0,.24-.07.44-.21.58-.14.15-.36.23-.67.23ZM370.28,281.78v-9.29h1.44v9.29h-1.44Z"/>
    <path class="cls-1" d="M376.22,281.78h-1.44v-9.29h1.44v1.51h.07c.23-.53.55-.95.96-1.26.41-.31.97-.47,1.67-.47.96,0,1.72.31,2.28.93.56.62.84,1.49.84,2.62v5.96h-1.44v-5.71c0-.83-.18-1.45-.53-1.87s-.88-.63-1.58-.63c-.38,0-.75.06-1.1.19-.35.13-.63.32-.85.58-.22.26-.32.59-.32.99v6.44Z"/>
    <path class="cls-1" d="M388.5,281.99c-.84,0-1.57-.2-2.2-.6-.62-.4-1.11-.97-1.46-1.69-.35-.73-.52-1.58-.52-2.56s.17-1.84.52-2.57c.35-.73.83-1.29,1.46-1.69.62-.4,1.36-.6,2.2-.6s1.54.2,2.14.58c.6.39,1.06.93,1.39,1.61.32.68.49,1.46.49,2.34v.68h-6.68v.43c0,.8.24,1.47.73,2.01.49.53,1.16.8,2.02.8.59,0,1.1-.14,1.54-.41s.78-.67,1.02-1.19l1.03.74c-.3.62-.77,1.13-1.4,1.53-.64.4-1.39.59-2.27.59ZM388.5,273.48c-.52,0-.98.12-1.38.36-.4.24-.72.57-.94,1-.23.43-.34.91-.34,1.45v.13h5.13v-.2c0-.55-.1-1.03-.31-1.44-.2-.41-.49-.73-.86-.95-.37-.23-.8-.34-1.3-.34Z"/>
    <path class="cls-1" d="M395.45,281.99c-.37,0-.65-.1-.83-.3-.18-.2-.27-.45-.27-.75v-.23c0-.31.09-.56.27-.76.18-.19.46-.29.83-.29s.66.1.84.29c.17.19.26.44.26.76v.23c0,.3-.09.55-.26.75-.17.2-.45.3-.84.3Z"/>
  </g>
  <g>
    <line class="cls-4" x1="179.63" y1="234.34" x2="203.1" y2="234.31"/>
    <path class="cls-1" d="M209.13,234.3c-2.84,1.06-6.36,2.86-8.54,4.77l1.71-4.76-1.73-4.75c2.19,1.9,5.71,3.69,8.55,4.74Z"/>
  </g>
  <g>
    <line class="cls-4" x1="121.54" y1="235.2" x2="98.08" y2="235.23"/>
    <path class="cls-1" d="M92.04,235.24c2.84-1.06,6.36-2.86,8.54-4.77l-1.71,4.76,1.73,4.75c-2.19-1.9-5.71-3.7-8.55-4.74Z"/>
  </g>
  <g id="layer1">
    <path id="path2213" class="cls-3" d="M187.66,182.84c-2.31.02-4.63.35-6.88,1.08l-.06.02c-8.94,2.9-13.04,10.59-9.19,17.19,3.87,6.65,14.29,9.72,23.24,6.84.85-.25,1.65-.58,2.42-.93-.46,2.7-3.77,5.47-6.1,7.94,0,0,4.77-1.62,7-4.02,2.01-2.16,2.46-5.12,2.55-6.02,4.69-3.69,6.25-9.24,3.38-14.18-2.9-4.98-9.47-7.94-16.36-7.91Z"/>
  </g>
  <ellipse class="cls-1" cx="150.79" cy="232.17" rx="21.67" ry="20.5" transform="translate(-.29 .19) rotate(-.07)"/>
  <ellipse class="cls-1" cx="65.54" cy="232.27" rx="21.67" ry="20.5" transform="translate(-.29 .08) rotate(-.07)"/>
  <ellipse class="cls-1" cx="236.04" cy="232.06" rx="21.67" ry="20.5" transform="translate(-.29 .29) rotate(-.07)"/>
  <g>
    <line class="cls-4" x1="431.63" y1="234.17" x2="455.1" y2="234.14"/>
    <path class="cls-1" d="M461.13,234.13c-2.84,1.06-6.36,2.86-8.54,4.77l1.71-4.76-1.73-4.75c2.19,1.9,5.71,3.69,8.55,4.74Z"/>
  </g>
  <g>
    <line class="cls-4" x1="373.54" y1="235.04" x2="350.08" y2="235.06"/>
    <path class="cls-1" d="M344.04,235.07c2.84-1.06,6.36-2.86,8.54-4.77l-1.71,4.76,1.73,4.75c-2.19-1.9-5.71-3.7-8.55-4.74Z"/>
  </g>
  <g id="layer1-2" data-name="layer1">
    <path id="path2213-2" data-name="path2213" class="cls-3" d="M439.66,182.67c-2.31.02-4.63.35-6.88,1.08l-.06.02c-8.94,2.9-13.04,10.59-9.19,17.19,3.87,6.65,14.29,9.72,23.24,6.84.85-.25,1.65-.58,2.42-.93-.46,2.7-3.77,5.47-6.1,7.94,0,0,4.77-1.62,7-4.02,2.01-2.16,2.46-5.12,2.55-6.02,4.69-3.69,6.25-9.24,3.38-14.18-2.9-4.98-9.47-7.94-16.36-7.91Z"/>
  </g>
  <ellipse class="cls-1" cx="402.79" cy="232" rx="21.67" ry="20.5" transform="translate(-.29 .5) rotate(-.07)"/>
  <ellipse class="cls-1" cx="317.54" cy="232.1" rx="21.67" ry="20.5" transform="translate(-.29 .39) rotate(-.07)"/>
  <ellipse class="cls-1" cx="488.04" cy="231.89" rx="21.67" ry="20.5" transform="translate(-.29 .6) rotate(-.07)"/>
  <path class="cls-2" d="M492.04,235.49h-5.51s0-.88,0-.88h2.34s0-6.75,0-6.75h-.08l-2.11,1.97-.59-.64,2.22-2.08h1.57s0,7.49,0,7.49h2.16s0,.88,0,.88Z"/>
  <path class="cls-2" d="M406.62,234.71v.89s-5.5,0-5.5,0v-1.03s2.73-2.52,2.73-2.52c.39-.36.72-.75.98-1.15.26-.41.4-.81.39-1.21v-.14c0-.46-.13-.84-.39-1.13-.26-.29-.64-.43-1.16-.43-.51,0-.9.14-1.17.41-.27.27-.46.61-.57,1.01l-.9-.35c.11-.33.27-.64.48-.94s.5-.55.86-.74c.36-.19.81-.29,1.34-.29.54,0,1.01.1,1.39.31.38.21.68.49.88.86.2.36.3.78.3,1.26,0,.43-.08.83-.23,1.19-.16.36-.37.7-.65,1.02-.28.32-.59.64-.95.96l-2.25,2.03h4.4Z"/>
  <path class="cls-2" d="M318.19,231.88h.91c.57,0,.99-.13,1.28-.4.28-.26.42-.6.42-1v-.08c0-.44-.14-.77-.42-.99-.28-.22-.64-.33-1.09-.33-.43,0-.78.1-1.06.28-.27.19-.5.44-.67.76l-.74-.58c.14-.22.32-.44.54-.65.22-.21.48-.38.8-.52.32-.14.7-.2,1.15-.21.47,0,.9.08,1.28.24.38.16.69.4.92.71s.34.7.34,1.15c0,.54-.15.97-.47,1.3s-.69.55-1.14.66v.05c.3.06.59.17.86.34.27.17.49.4.65.69.17.29.25.65.25,1.07,0,.48-.12.9-.35,1.27-.24.37-.57.65-1,.86-.43.21-.93.31-1.49.31-.48,0-.89-.07-1.23-.21-.34-.14-.63-.32-.86-.53-.24-.22-.44-.44-.62-.68l.75-.58c.22.33.47.59.75.8.28.2.68.3,1.19.3.59,0,1.04-.14,1.34-.41s.46-.65.45-1.14v-.1c0-.5-.15-.88-.46-1.14-.3-.27-.75-.4-1.34-.4h-.98s0-.87,0-.87Z"/>
  <path class="cls-2" d="M235.19,237.56h-.96s0-1.64,0-1.64h-4.04s0-.88,0-.88l3.5-5.85h1.5s0,5.89,0,5.89h1.21s0,.84,0,.84h-1.21s0,1.65,0,1.65ZM234.16,229.97l-3.03,5.12h3.1s0-5.12,0-5.12h-.06Z"/>
  <path class="cls-2" d="M152.44,227.54v.89s-3.67,0-3.67,0l-.24,3.19h.08c.14-.19.28-.36.43-.49.15-.14.33-.24.54-.32.21-.08.46-.11.74-.11.48,0,.91.1,1.28.31.38.21.67.5.89.89.22.38.32.85.33,1.39,0,.54-.11,1.02-.33,1.44-.22.42-.54.74-.96.98-.42.24-.93.36-1.52.36-.46,0-.86-.07-1.19-.21-.33-.14-.61-.32-.83-.53-.23-.22-.43-.44-.59-.68l.76-.58c.22.33.45.59.71.8.26.2.64.3,1.15.3.57,0,1-.15,1.3-.46.3-.3.45-.73.45-1.29v-.12c0-.55-.15-.98-.45-1.28-.3-.3-.73-.46-1.3-.46-.38,0-.69.07-.91.21-.22.14-.42.31-.59.5l-.85-.12.29-4.61h4.49Z"/>
  <path class="cls-2" d="M64.83,236.17c-.58,0-1.07-.13-1.49-.39-.42-.26-.74-.63-.97-1.11-.23-.48-.34-1.05-.34-1.72,0-.62.09-1.21.27-1.75.18-.54.42-1.04.72-1.5.3-.46.62-.86.97-1.21.35-.35.69-.63,1.02-.85h1.3c-.59.43-1.1.86-1.53,1.28-.43.42-.78.88-1.06,1.36-.28.49-.49,1.06-.65,1.71l.06.02c.14-.23.29-.44.47-.62.18-.18.4-.32.65-.43.26-.11.55-.16.89-.16.48,0,.91.1,1.28.31.37.21.66.51.88.89.21.39.32.84.32,1.37,0,.54-.11,1.03-.35,1.45s-.56.75-.97.98c-.42.23-.9.35-1.46.35ZM64.82,235.29c.37,0,.68-.07.94-.2.26-.14.46-.34.6-.6.14-.26.21-.58.21-.96v-.1c0-.38-.07-.7-.21-.96-.14-.26-.34-.46-.6-.6s-.57-.2-.94-.2c-.37,0-.68.07-.94.21-.26.14-.46.34-.6.6-.14.26-.21.58-.21.96v.1c0,.38.07.7.21.96.14.26.34.46.6.6.26.14.57.2.94.2Z"/>
  <ellipse class="cls-1" cx="155.77" cy="68.42" rx="21.67" ry="20.5"/>
  <ellipse class="cls-1" cx="70.52" cy="68.42" rx="21.67" ry="20.5"/>
  <ellipse class="cls-1" cx="241.02" cy="68.42" rx="21.67" ry="20.5"/>
  <g>
    <line class="cls-4" x1="66.36" y1="104.88" x2="239.33" y2="103.91"/>
    <path class="cls-1" d="M245.36,103.88c-2.83,1.07-6.35,2.89-8.52,4.8l1.69-4.77-1.75-4.75c2.19,1.89,5.73,3.67,8.57,4.71Z"/>
  </g>
  <g id="layer1-3" data-name="layer1">
    <path id="path3466" class="cls-1" d="M174.84,128.07c-.83.27-1.53-.13-1.54-.88-.03-1.16,1.96-1.55,2.42-.48.28.66.02,1.06-.88,1.36h0ZM176.5,125.47c-1.25.38-2.23-.57-1.57-1.53.31-.45,1.82-.69,2.29-.37.67.46.23,1.61-.71,1.9h0ZM178.18,122.47c-.73.4-2.24.13-2.38-.42-.18-.7.52-1.44,1.5-1.59,1.04-.16,1.61.15,1.63.88.01.64-.06.75-.74,1.13h0,0ZM179.32,119.23c-.55.35-2.17.38-2.65.05-.96-.66-.08-2.08,1.61-2.6,1.22-.37,1.87-.18,2.15.64.17.48-.4,1.45-1.11,1.91h0ZM178.49,115.99c-2.01.63-3.43.31-3.62-.81-.16-.94.3-1.64,1.81-2.73,1.64-1.18,2.83-1.38,3.74-.62.74.62.76,1.44.07,2.85-.37.75-.52.85-1.99,1.31h0ZM171.8,126.77c-1.24,1.28-2.53,2.05-3.94,2.34-.75.15-2.02.46-2.82.68s-1.93.45-2.52.52-1.87.24-2.86.39c-1.72.25-1.84.23-2.92-.52-1.43-1-1.77-1.88-1.31-3.44.19-.64.68-1.64,1.12-2.28.68-1,.92-1.2,1.83-1.56,1.06-.41,1.66-.35,3.7.41,1.25.46,2.17.35,3.58-.43,1.09-.6,3.7-3.11,4.59-4.4.77-1.12,1.96-1.79,2.87-1.63.68.12.81.25,1.23,1.34.55,1.42.38,2.91-.65,5.49-.73,1.83-.83,2-1.9,3.09h0ZM148.46,124.47c-1.02.61-1.73.8-2.71.73-1.11-.08-1.62-.49-1.64-1.28-.02-1.06.79-2.03,2.55-3.04,1.73-.99,2.99-1.18,3.49-.51.67.91-.3,3.28-1.68,4.1h0ZM148.05,119.31c-1.65,1.15-3.43,1.41-3.72.55-.34-1,2.04-3.51,3.37-3.56.82-.03,1.57.69,1.47,1.41-.11.81-.23.98-1.12,1.6ZM141.56,125.04c-.81.45-1.85.43-2.54-.05-.64-.44-2.51-.92-3.52-.91-.35,0-1.19.19-1.87.42-1.03.34-1.32.55-1.82,1.28-.81,1.18-2.74,3.09-3.57,3.53-.37.2-1.04.63-1.49.97-.83.62-1.29.7-2.55.47-1.17-.22-1.74-.76-1.85-1.77-.14-1.35.17-2.3,1.29-3.94.94-1.36,1.18-1.58,4.56-3.97,1.96-1.39,4.01-2.9,4.55-3.35,1.52-1.29,3.99-2.39,5.2-2.33,2.59.13,5.84,4.79,5.2,7.46-.2.85-.9,1.8-1.6,2.19h0ZM144.88,116.98c-1.78.62-2.74.25-2.03-.78.41-.6,1.61-1.54,2.26-1.77.74-.27,1.65.4,1.48,1.09-.2.85-.38,1-1.71,1.46h0ZM142.57,115.53c-1.13.48-1.45.41-1.41-.31.06-.92,2.25-2.51,2.88-2.08.22.15.13,1.13-.15,1.54-.16.23-.75.62-1.32.86h0ZM140.53,114.08c-.94.65-1.38.53-1.23-.34.19-1.09,2.19-1.96,2.43-1.07.1.37-.18.69-1.21,1.4h0Z"/>
  </g>
  <ellipse class="cls-1" cx="411.52" cy="68.42" rx="21.67" ry="20.5"/>
  <ellipse class="cls-1" cx="326.27" cy="68.42" rx="21.67" ry="20.5"/>
  <ellipse class="cls-1" cx="496.77" cy="68.42" rx="21.67" ry="20.5"/>
  <g>
    <line class="cls-4" x1="324.86" y1="103.88" x2="497.83" y2="102.91"/>
    <path class="cls-1" d="M503.86,102.88c-2.83,1.07-6.35,2.89-8.52,4.8l1.69-4.77-1.75-4.75c2.19,1.89,5.73,3.67,8.57,4.71Z"/>
  </g>
  <g id="layer1-4" data-name="layer1">
    <path id="path3466-2" data-name="path3466" class="cls-1" d="M433.34,127.07c-.83.27-1.53-.13-1.54-.88-.03-1.16,1.96-1.55,2.42-.48.28.66.02,1.06-.88,1.36h0ZM435,124.47c-1.25.38-2.23-.57-1.57-1.53.31-.45,1.82-.69,2.29-.37.67.46.23,1.61-.71,1.9h0ZM436.68,121.47c-.73.4-2.24.13-2.38-.42-.18-.7.52-1.44,1.5-1.59,1.04-.16,1.61.15,1.63.88.01.64-.06.75-.74,1.13h0,0ZM437.82,118.23c-.55.35-2.17.38-2.65.05-.96-.66-.08-2.08,1.61-2.6,1.22-.37,1.87-.18,2.15.64.17.48-.4,1.45-1.11,1.91h0ZM436.99,114.99c-2.01.63-3.43.31-3.62-.81-.16-.94.3-1.64,1.81-2.73,1.64-1.18,2.83-1.38,3.74-.62.74.62.76,1.44.07,2.85-.37.75-.52.85-1.99,1.31h0ZM430.3,125.77c-1.24,1.28-2.53,2.05-3.94,2.34-.75.15-2.02.46-2.82.68s-1.93.45-2.52.52-1.87.24-2.86.39c-1.72.25-1.84.23-2.92-.52-1.43-1-1.77-1.88-1.31-3.44.19-.64.68-1.64,1.12-2.28.68-1,.92-1.2,1.83-1.56,1.06-.41,1.66-.35,3.7.41,1.25.46,2.17.35,3.58-.43,1.09-.6,3.7-3.11,4.59-4.4.77-1.12,1.96-1.79,2.87-1.63.68.12.81.25,1.23,1.34.55,1.42.38,2.91-.65,5.49-.73,1.83-.83,2-1.9,3.09h0ZM406.96,123.47c-1.02.61-1.73.8-2.71.73-1.11-.08-1.62-.49-1.64-1.28-.02-1.06.79-2.03,2.55-3.04,1.73-.99,2.99-1.18,3.49-.51.67.91-.3,3.28-1.68,4.1h0ZM406.55,118.31c-1.65,1.15-3.43,1.41-3.72.55-.34-1,2.04-3.51,3.37-3.56.82-.03,1.57.69,1.47,1.41-.11.81-.23.98-1.12,1.6ZM400.06,124.04c-.81.45-1.85.43-2.54-.05-.64-.44-2.51-.92-3.52-.91-.35,0-1.19.19-1.87.42-1.03.34-1.32.55-1.82,1.28-.81,1.18-2.74,3.09-3.57,3.53-.37.2-1.04.63-1.49.97-.83.62-1.29.7-2.55.47-1.17-.22-1.74-.76-1.85-1.77-.14-1.35.17-2.3,1.29-3.94.94-1.36,1.18-1.58,4.56-3.97,1.96-1.39,4.01-2.9,4.55-3.35,1.52-1.29,3.99-2.39,5.2-2.33,2.59.13,5.84,4.79,5.2,7.46-.2.85-.9,1.8-1.6,2.19h0ZM403.38,115.98c-1.78.62-2.74.25-2.03-.78.41-.6,1.61-1.54,2.26-1.77.74-.27,1.65.4,1.48,1.09-.2.85-.38,1-1.71,1.46h0ZM401.07,114.53c-1.13.48-1.45.41-1.41-.31.06-.92,2.25-2.51,2.88-2.08.22.15.13,1.13-.15,1.54-.16.23-.75.62-1.32.86h0ZM399.03,113.08c-.94.65-1.38.53-1.23-.34.19-1.09,2.19-1.96,2.43-1.07.1.37-.18.69-1.21,1.4h0Z"/>
  </g>
  <path class="cls-2" d="M499.77,73.42h-5.51v-.89h2.34v-6.74h-.08l-2.11,1.97-.59-.64,2.22-2.08h1.57v7.49h2.16v.89Z"/>
  <path class="cls-2" d="M414.35,72.53v.89h-5.5v-1.03l2.74-2.52c.39-.36.72-.74.98-1.15.26-.41.4-.81.4-1.21v-.14c0-.46-.13-.84-.38-1.13-.26-.29-.64-.43-1.16-.43s-.9.14-1.17.41c-.27.27-.46.61-.57,1.01l-.9-.35c.11-.33.27-.64.49-.94s.5-.55.86-.74c.36-.19.81-.29,1.34-.29s1.01.1,1.39.31c.38.21.68.49.88.86.2.36.3.79.3,1.27,0,.43-.08.83-.23,1.19-.16.36-.37.7-.65,1.02-.28.32-.59.64-.95.96l-2.26,2.03h4.4Z"/>
  <path class="cls-2" d="M325.92,69.59h.91c.57,0,.99-.13,1.28-.4.28-.26.43-.6.43-1v-.08c0-.44-.14-.77-.41-.99-.28-.22-.64-.33-1.09-.33s-.78.09-1.06.28-.5.44-.67.76l-.74-.58c.14-.22.32-.44.54-.65.22-.21.48-.38.8-.52.32-.14.7-.2,1.15-.2.47,0,.9.08,1.28.25.38.16.69.4.92.71.23.31.34.7.34,1.15,0,.54-.16.97-.47,1.3-.31.33-.69.55-1.14.66v.05c.3.06.59.17.86.34.27.17.49.4.65.7s.25.65.25,1.07c0,.48-.12.9-.35,1.27-.24.36-.57.65-1,.86-.43.21-.93.31-1.49.31-.48,0-.89-.07-1.23-.21-.34-.14-.63-.32-.86-.53-.24-.22-.44-.44-.62-.68l.76-.58c.22.33.47.59.75.8.28.2.68.31,1.19.31.59,0,1.04-.14,1.34-.41.3-.27.46-.65.46-1.14v-.1c0-.5-.15-.88-.46-1.15s-.75-.4-1.34-.4h-.98v-.88Z"/>
  <path class="cls-2" d="M242.91,75.17h-.96v-1.64h-4.04v-.89l3.5-5.84h1.5v5.89h1.21v.84h-1.21v1.64ZM241.89,67.57l-3.04,5.11h3.1v-5.11h-.06Z"/>
  <path class="cls-2" d="M160.18,65.04v.89h-3.67l-.24,3.19h.08c.14-.19.28-.36.43-.49.15-.14.33-.24.54-.32.21-.08.46-.11.74-.11.48,0,.91.1,1.28.31s.67.5.89.89c.22.38.32.85.32,1.39s-.11,1.02-.34,1.44c-.22.42-.55.74-.97.98-.42.24-.93.35-1.52.35-.46,0-.86-.07-1.19-.21-.33-.14-.61-.32-.83-.53-.23-.22-.43-.44-.59-.68l.76-.58c.22.33.45.59.71.8.26.2.64.31,1.15.31.57,0,1-.15,1.3-.46.3-.3.45-.73.45-1.28v-.12c0-.55-.15-.98-.45-1.28-.3-.3-.73-.46-1.3-.46-.38,0-.69.07-.91.21-.22.14-.42.31-.59.5l-.85-.12.3-4.61h4.49Z"/>
  <path class="cls-2" d="M72.56,73.56c-.58,0-1.07-.13-1.49-.39s-.74-.63-.97-1.11c-.23-.48-.34-1.05-.34-1.72,0-.62.09-1.21.27-1.75.18-.54.42-1.04.72-1.5.3-.46.62-.86.97-1.21.35-.35.69-.63,1.03-.85h1.3c-.59.43-1.1.86-1.53,1.28-.43.42-.78.87-1.06,1.36-.28.49-.5,1.06-.65,1.7l.06.02c.14-.23.29-.44.47-.62.18-.18.4-.32.65-.43.26-.1.55-.16.89-.16.48,0,.91.1,1.28.31.37.21.66.51.88.89.21.39.32.85.32,1.37s-.12,1.03-.35,1.45-.56.75-.97.98c-.42.23-.9.35-1.46.35ZM72.55,72.68c.37,0,.68-.07.94-.2.26-.14.46-.34.6-.6.14-.26.21-.58.21-.96v-.1c0-.38-.07-.7-.21-.96-.14-.26-.34-.46-.6-.6-.26-.14-.57-.2-.94-.2s-.68.07-.94.2c-.26.14-.46.34-.6.6-.14.26-.21.58-.21.96v.1c0,.38.07.7.21.96.14.26.34.46.6.6.26.14.57.2.94.2Z"/>
  <ellipse class="cls-1" cx="149.77" cy="326.27" rx="21.67" ry="20.5"/>
  <ellipse class="cls-1" cx="64.52" cy="326.27" rx="21.67" ry="20.5"/>
  <ellipse class="cls-1" cx="235.02" cy="326.27" rx="21.67" ry="20.5"/>
  <ellipse class="cls-1" cx="405.52" cy="326.27" rx="21.67" ry="20.5"/>
  <ellipse class="cls-1" cx="320.27" cy="326.27" rx="21.67" ry="20.5"/>
  <ellipse class="cls-1" cx="490.77" cy="326.27" rx="21.67" ry="20.5"/>
  <path class="cls-2" d="M494.34,329.27h-5.51v-.89h2.34v-6.74h-.08l-2.11,1.97-.59-.64,2.22-2.08h1.57v7.49h2.16v.89Z"/>
  <path class="cls-2" d="M408.92,328.39v.89h-5.5v-1.03l2.74-2.52c.39-.36.72-.74.98-1.15.26-.41.4-.81.4-1.21v-.14c0-.46-.13-.84-.38-1.13-.26-.29-.64-.43-1.16-.43s-.9.14-1.17.41c-.27.27-.46.61-.57,1.01l-.9-.35c.11-.33.27-.64.49-.94s.5-.55.86-.74c.36-.19.81-.29,1.34-.29s1.01.1,1.39.31c.38.21.68.49.88.86.2.36.3.79.3,1.27,0,.43-.08.83-.23,1.19-.16.36-.37.7-.65,1.02-.28.32-.59.64-.95.96l-2.26,2.03h4.4Z"/>
  <path class="cls-2" d="M320.49,325.45h.91c.57,0,.99-.13,1.28-.4.28-.26.43-.6.43-1v-.08c0-.44-.14-.77-.41-.99-.28-.22-.64-.33-1.09-.33s-.78.09-1.06.28-.5.44-.67.76l-.74-.58c.14-.22.32-.44.54-.65.22-.21.48-.38.8-.52.32-.14.7-.2,1.15-.2.47,0,.9.08,1.28.25.38.16.69.4.92.71.23.31.34.7.34,1.15,0,.54-.16.97-.47,1.3-.31.33-.69.55-1.14.66v.05c.3.06.59.17.86.34.27.17.49.4.65.7s.25.65.25,1.07c0,.48-.12.9-.35,1.27-.24.36-.57.65-1,.86-.43.21-.93.31-1.49.31-.48,0-.89-.07-1.23-.21-.34-.14-.63-.32-.86-.53-.24-.22-.44-.44-.62-.68l.76-.58c.22.33.47.59.75.8.28.2.68.31,1.19.31.59,0,1.04-.14,1.34-.41.3-.27.46-.65.46-1.14v-.1c0-.5-.15-.88-.46-1.15s-.75-.4-1.34-.4h-.98v-.88Z"/>
  <path class="cls-2" d="M237.48,331.03h-.96v-1.64h-4.04v-.89l3.5-5.84h1.5v5.89h1.21v.84h-1.21v1.64ZM236.46,323.43l-3.04,5.11h3.1v-5.11h-.06Z"/>
  <path class="cls-2" d="M154.75,320.9v.89h-3.67l-.24,3.19h.08c.14-.19.28-.36.43-.49.15-.14.33-.24.54-.32.21-.08.46-.11.74-.11.48,0,.91.1,1.28.31s.67.5.89.89c.22.38.32.85.32,1.39s-.11,1.02-.34,1.44c-.22.42-.55.74-.97.98-.42.24-.93.35-1.52.35-.46,0-.86-.07-1.19-.21-.33-.14-.61-.32-.83-.53-.23-.22-.43-.44-.59-.68l.76-.58c.22.33.45.59.71.8.26.2.64.31,1.15.31.57,0,1-.15,1.3-.46.3-.3.45-.73.45-1.28v-.12c0-.55-.15-.98-.45-1.28-.3-.3-.73-.46-1.3-.46-.38,0-.69.07-.91.21-.22.14-.42.31-.59.5l-.85-.12.3-4.61h4.49Z"/>
  <path class="cls-2" d="M67.13,329.42c-.58,0-1.07-.13-1.49-.39s-.74-.63-.97-1.11c-.23-.48-.34-1.05-.34-1.72,0-.62.09-1.21.27-1.75.18-.54.42-1.04.72-1.5.3-.46.62-.86.97-1.21.35-.35.69-.63,1.03-.85h1.3c-.59.43-1.1.86-1.53,1.28-.43.42-.78.87-1.06,1.36-.28.49-.5,1.06-.65,1.7l.06.02c.14-.23.29-.44.47-.62.18-.18.4-.32.65-.43.26-.1.55-.16.89-.16.48,0,.91.1,1.28.31.37.21.66.51.88.89.21.39.32.85.32,1.37s-.12,1.03-.35,1.45-.56.75-.97.98c-.42.23-.9.35-1.46.35ZM67.12,328.54c.37,0,.68-.07.94-.2.26-.14.46-.34.6-.6.14-.26.21-.58.21-.96v-.1c0-.38-.07-.7-.21-.96-.14-.26-.34-.46-.6-.6-.26-.14-.57-.2-.94-.2s-.68.07-.94.2c-.26.14-.46.34-.6.6-.14.26-.21.58-.21.96v.1c0,.38.07.7.21.96.14.26.34.46.6.6.26.14.57.2.94.2Z"/>
  <g>
    <path class="cls-4" d="M487.49,355.48c-21.41,29.93-44.55,48.33-64,60-93.51,56.1-229.17,33.05-350.99-50.26"/>
    <path class="cls-1" d="M67.54,361.79c2.94.73,6.86,1.23,9.74.88l-4.1,2.96-1.26,4.9c-.73-2.8-2.63-6.27-4.39-8.74Z"/>
  </g>
  <g>
    <path class="cls-4" d="M404.54,353.98c-19.13,20.14-38.4,31.19-53.05,37.5-85.96,37.05-176.41-18.22-199.57-34.02"/>
    <path class="cls-1" d="M146.99,353.98c2.93.75,6.85,1.28,9.73.96l-4.12,2.93-1.3,4.89c-.71-2.81-2.58-6.29-4.31-8.78Z"/>
  </g>
  <g>
    <path class="cls-4" d="M317.49,352.48c-1.05,2.02-12.25,22.78-36,26-16.87,2.29-33.9-5.1-44.6-19.01"/>
    <path class="cls-1" d="M233.49,354.48c2.48,1.73,5.97,3.61,8.78,4.32l-4.89,1.29-2.93,4.12c.32-2.88-.21-6.8-.96-9.73Z"/>
  </g>
  <g>
    <ellipse class="cls-1" cx="71.52" cy="595.62" rx="21.67" ry="20.5"/>
    <path class="cls-2" d="M75.08,598.62h-5.51v-.89h2.34v-6.74h-.08l-2.11,1.97-.59-.64,2.22-2.08h1.57v7.49h2.16v.89Z"/>
  </g>
  <g>
    <ellipse class="cls-1" cx="157.52" cy="595.62" rx="21.67" ry="20.5"/>
    <path class="cls-2" d="M160.92,597.74v.89h-5.5v-1.03l2.74-2.52c.39-.36.72-.74.98-1.15.26-.41.4-.81.4-1.21v-.14c0-.46-.13-.84-.38-1.13-.26-.29-.64-.43-1.16-.43s-.9.14-1.17.41c-.27.27-.46.61-.57,1.01l-.9-.35c.11-.33.27-.64.49-.94s.5-.55.86-.74c.36-.19.81-.29,1.34-.29s1.01.1,1.39.31c.38.21.68.49.88.86.2.36.3.79.3,1.27,0,.43-.08.83-.23,1.19-.16.36-.37.7-.65,1.02-.28.32-.59.64-.95.96l-2.26,2.03h4.4Z"/>
  </g>
  <g>
    <ellipse class="cls-1" cx="242.02" cy="595.62" rx="21.67" ry="20.5"/>
    <path class="cls-2" d="M242.24,594.8h.91c.57,0,.99-.13,1.28-.4.28-.26.43-.6.43-1v-.08c0-.44-.14-.77-.41-.99-.28-.22-.64-.33-1.09-.33s-.78.09-1.06.28-.5.44-.67.76l-.74-.58c.14-.22.32-.44.54-.65.22-.21.48-.38.8-.52.32-.14.7-.2,1.15-.2.47,0,.9.08,1.28.25.38.16.69.4.92.71.23.31.34.7.34,1.15,0,.54-.16.97-.47,1.3-.31.33-.69.55-1.14.66v.05c.3.06.59.17.86.34.27.17.49.4.65.7s.25.65.25,1.07c0,.48-.12.9-.35,1.27-.24.36-.57.65-1,.86-.43.21-.93.31-1.49.31-.48,0-.89-.07-1.23-.21-.34-.14-.63-.32-.86-.53-.24-.22-.44-.44-.62-.68l.76-.58c.22.33.47.59.75.8.28.2.68.31,1.19.31.59,0,1.04-.14,1.34-.41.3-.27.46-.65.46-1.14v-.1c0-.5-.15-.88-.46-1.15s-.75-.4-1.34-.4h-.98v-.88Z"/>
  </g>
  <g>
    <ellipse class="cls-1" cx="242.02" cy="522.29" rx="21.67" ry="20.5"/>
    <path class="cls-2" d="M244.48,527.04h-.96v-1.64h-4.04v-.89l3.5-5.84h1.5v5.89h1.21v.84h-1.21v1.64ZM243.46,519.45l-3.04,5.11h3.1v-5.11h-.06Z"/>
  </g>
  <g>
    <ellipse class="cls-1" cx="157.52" cy="522.29" rx="21.67" ry="20.5"/>
    <path class="cls-2" d="M162.5,516.91v.89h-3.67l-.24,3.19h.08c.14-.19.28-.36.43-.49.15-.14.33-.24.54-.32.21-.08.46-.11.74-.11.48,0,.91.1,1.28.31s.67.5.89.89c.22.38.32.85.32,1.39s-.11,1.02-.34,1.44c-.22.42-.55.74-.97.98-.42.24-.93.35-1.52.35-.46,0-.86-.07-1.19-.21-.33-.14-.61-.32-.83-.53-.23-.22-.43-.44-.59-.68l.76-.58c.22.33.45.59.71.8.26.2.64.31,1.15.31.57,0,1-.15,1.3-.46.3-.3.45-.73.45-1.28v-.12c0-.55-.15-.98-.45-1.28-.3-.3-.73-.46-1.3-.46-.38,0-.69.07-.91.21-.22.14-.42.31-.59.5l-.85-.12.3-4.61h4.49Z"/>
  </g>
  <g>
    <ellipse class="cls-1" cx="71.52" cy="522.29" rx="21.67" ry="20.5"/>
    <path class="cls-2" d="M74.13,525.43c-.58,0-1.07-.13-1.49-.39s-.74-.63-.97-1.11c-.23-.48-.34-1.05-.34-1.72,0-.62.09-1.21.27-1.75.18-.54.42-1.04.72-1.5.3-.46.62-.86.97-1.21.35-.35.69-.63,1.03-.85h1.3c-.59.43-1.1.86-1.53,1.28-.43.42-.78.87-1.06,1.36-.28.49-.5,1.06-.65,1.7l.06.02c.14-.23.29-.44.47-.62.18-.18.4-.32.65-.43.26-.1.55-.16.89-.16.48,0,.91.1,1.28.31.37.21.66.51.88.89.21.39.32.85.32,1.37s-.12,1.03-.35,1.45-.56.75-.97.98c-.42.23-.9.35-1.46.35ZM74.12,524.56c.37,0,.68-.07.94-.2.26-.14.46-.34.6-.6.14-.26.21-.58.21-.96v-.1c0-.38-.07-.7-.21-.96-.14-.26-.34-.46-.6-.6-.26-.14-.57-.2-.94-.2s-.68.07-.94.2c-.26.14-.46.34-.6.6-.14.26-.21.58-.21.96v.1c0,.38.07.7.21.96.14.26.34.46.6.6.26.14.57.2.94.2Z"/>
  </g>
  <g>
    <path class="cls-1" d="M50.04,475.08h-1.44v-2.47h-6.07v-1.33l5.26-8.77h2.25v8.84h1.82v1.26h-1.82v2.47ZM48.51,463.68l-4.55,7.67h4.64v-7.67h-.09Z"/>
    <path class="cls-1" d="M55.1,475.29c-.37,0-.65-.1-.83-.3-.18-.2-.27-.45-.27-.75v-.23c0-.31.09-.56.27-.76.18-.19.46-.29.83-.29s.66.1.84.29c.17.19.26.44.26.76v.23c0,.3-.09.55-.26.75-.17.2-.45.3-.84.3Z"/>
    <path class="cls-1" d="M64.98,475.08h-1.51v-12.56h5c.76,0,1.4.15,1.92.44s.92.71,1.19,1.24.4,1.17.4,1.92-.13,1.37-.4,1.91-.67.96-1.19,1.25-1.16.44-1.92.44h-3.49v5.36ZM64.98,463.84v4.54h3.49c.4,0,.73-.07,1.02-.21.28-.14.5-.34.65-.61.15-.27.23-.6.23-.98v-.94c0-.38-.08-.71-.23-.98-.15-.27-.37-.47-.65-.61-.28-.14-.62-.21-1.02-.21h-3.49Z"/>
    <path class="cls-1" d="M81.61,475.08h-.81c-.38,0-.7-.08-.94-.24-.24-.16-.41-.39-.52-.67-.11-.29-.16-.62-.16-.99v-.13l.56.52h-.63c-.19.56-.52.99-1,1.29s-1.03.44-1.68.44c-.98,0-1.75-.25-2.29-.76s-.82-1.19-.82-2.05c0-.59.14-1.08.43-1.49.29-.4.72-.71,1.3-.92s1.32-.31,2.22-.31h1.84v-.92c0-.66-.18-1.16-.54-1.51-.36-.35-.91-.52-1.66-.52-.55,0-1.02.13-1.4.38-.38.25-.7.59-.95,1.01l-.86-.81c.25-.49.65-.92,1.21-1.28.55-.36,1.25-.54,2.09-.54,1.12,0,1.99.28,2.62.83s.94,1.32.94,2.3v5.11h1.06v1.26ZM79.11,470.85h-1.91c-.82,0-1.42.12-1.8.36-.38.24-.58.59-.58,1.04v.38c0,.46.17.81.5,1.06.34.25.78.38,1.33.38.48,0,.9-.08,1.27-.23.37-.15.65-.35.86-.61s.31-.54.31-.86v-1.53Z"/>
    <path class="cls-1" d="M85.1,475.08h-1.44v-9.29h1.44v1.71h.09c.11-.3.28-.58.5-.84s.52-.47.88-.63c.36-.16.79-.24,1.3-.24h.56v1.44h-.85c-.52,0-.96.07-1.33.21-.37.14-.66.32-.85.55-.2.23-.3.49-.3.79v6.3Z"/>
    <path class="cls-1" d="M94.19,475.08h-1.8c-.49,0-.87-.14-1.13-.43-.26-.29-.4-.65-.4-1.1v-6.5h-1.53v-1.26h.86c.31,0,.52-.06.64-.19.11-.13.17-.35.17-.66v-1.73h1.3v2.57h2.03v1.26h-2.03v6.77h1.89v1.26Z"/>
    <path class="cls-1" d="M97.38,463.61c-.3,0-.52-.08-.67-.23-.14-.15-.22-.34-.22-.58v-.23c0-.24.07-.43.22-.58s.37-.23.67-.23.54.08.67.23c.14.15.21.34.21.58v.23c0,.24-.07.44-.21.58-.14.15-.36.23-.67.23ZM96.66,475.08v-9.29h1.44v9.29h-1.44Z"/>
    <path class="cls-1" d="M104.61,475.29c-1.31,0-2.32-.44-3.05-1.31s-1.09-2.06-1.09-3.55.36-2.67,1.09-3.55c.73-.88,1.74-1.31,3.05-1.31.92,0,1.67.2,2.23.61.56.41.98.93,1.24,1.57l-1.21.61c-.17-.48-.45-.85-.84-1.12-.39-.26-.87-.4-1.43-.4-.85,0-1.5.26-1.94.78-.44.52-.66,1.19-.66,2.01v1.58c0,.8.22,1.47.66,2,.44.53,1.08.79,1.94.79.59,0,1.09-.14,1.51-.41.42-.28.76-.68,1.01-1.21l1.04.7c-.3.66-.75,1.19-1.34,1.59-.59.4-1.33.6-2.22.6Z"/>
    <path class="cls-1" d="M110.93,463.61c-.3,0-.52-.08-.67-.23-.14-.15-.22-.34-.22-.58v-.23c0-.24.07-.43.22-.58s.37-.23.67-.23.54.08.67.23c.14.15.21.34.21.58v.23c0,.24-.07.44-.21.58-.14.15-.36.23-.67.23ZM110.21,475.08v-9.29h1.44v9.29h-1.44Z"/>
    <path class="cls-1" d="M114.71,478.68v-12.89h1.44v1.51h.07c.24-.59.59-1.02,1.06-1.3s1.02-.42,1.66-.42c.78,0,1.45.2,2.02.59.56.4,1,.96,1.31,1.68.31.73.46,1.59.46,2.58s-.15,1.84-.46,2.57c-.31.73-.74,1.3-1.31,1.69-.56.4-1.24.59-2.02.59-.64,0-1.18-.14-1.63-.43-.45-.29-.81-.72-1.09-1.3h-.07v5.11h-1.44ZM118.55,474c.82,0,1.46-.25,1.93-.76.47-.51.7-1.18.7-2.01v-1.58c0-.83-.23-1.5-.7-2.01-.47-.51-1.11-.76-1.93-.76-.43,0-.83.08-1.2.23-.37.16-.66.37-.87.63s-.32.57-.32.92v3.46c0,.4.11.74.32,1.02.22.28.51.5.87.65.37.15.77.22,1.2.22Z"/>
    <path class="cls-1" d="M132.71,475.08h-.81c-.38,0-.7-.08-.94-.24-.24-.16-.41-.39-.52-.67-.11-.29-.16-.62-.16-.99v-.13l.56.52h-.63c-.19.56-.52.99-1,1.29s-1.03.44-1.68.44c-.98,0-1.75-.25-2.29-.76s-.82-1.19-.82-2.05c0-.59.14-1.08.43-1.49.29-.4.72-.71,1.3-.92s1.32-.31,2.22-.31h1.84v-.92c0-.66-.18-1.16-.54-1.51-.36-.35-.91-.52-1.66-.52-.55,0-1.02.13-1.4.38-.38.25-.7.59-.95,1.01l-.86-.81c.25-.49.65-.92,1.21-1.28.55-.36,1.25-.54,2.09-.54,1.12,0,1.99.28,2.62.83s.94,1.32.94,2.3v5.11h1.06v1.26ZM130.21,470.85h-1.91c-.82,0-1.42.12-1.8.36-.38.24-.58.59-.58,1.04v.38c0,.46.17.81.5,1.06.34.25.78.38,1.33.38.48,0,.9-.08,1.27-.23.37-.15.65-.35.86-.61s.31-.54.31-.86v-1.53Z"/>
    <path class="cls-1" d="M138.62,475.08h-1.8c-.49,0-.87-.14-1.13-.43-.26-.29-.4-.65-.4-1.1v-6.5h-1.53v-1.26h.86c.31,0,.52-.06.64-.19.11-.13.17-.35.17-.66v-1.73h1.3v2.57h2.03v1.26h-2.03v6.77h1.89v1.26Z"/>
    <path class="cls-1" d="M144.5,475.29c-.84,0-1.57-.2-2.2-.6-.62-.4-1.11-.97-1.46-1.69-.35-.73-.52-1.58-.52-2.56s.17-1.84.52-2.57c.35-.73.83-1.29,1.46-1.69.62-.4,1.36-.6,2.2-.6s1.54.2,2.14.58c.6.39,1.06.93,1.39,1.61.32.68.49,1.46.49,2.34v.68h-6.68v.43c0,.8.24,1.47.73,2.01.49.53,1.16.8,2.02.8.59,0,1.1-.14,1.54-.41s.78-.67,1.02-1.19l1.03.74c-.3.62-.77,1.13-1.4,1.53-.64.4-1.39.59-2.27.59ZM144.5,466.78c-.52,0-.98.12-1.38.36-.4.24-.72.57-.94,1-.23.43-.34.91-.34,1.45v.13h5.13v-.2c0-.55-.1-1.03-.31-1.44-.2-.41-.49-.73-.86-.95-.37-.23-.8-.34-1.3-.34Z"/>
    <path class="cls-1" d="M155.86,463.61c-.3,0-.52-.08-.67-.23-.14-.15-.22-.34-.22-.58v-.23c0-.24.07-.43.22-.58s.37-.23.67-.23.54.08.67.23c.14.15.21.34.21.58v.23c0,.24-.07.44-.21.58-.14.15-.36.23-.67.23ZM155.14,475.08v-9.29h1.44v9.29h-1.44Z"/>
    <path class="cls-1" d="M161.08,475.08h-1.44v-9.29h1.44v1.51h.07c.23-.53.55-.95.96-1.26.41-.31.97-.47,1.67-.47.96,0,1.72.31,2.28.93.56.62.84,1.49.84,2.62v5.96h-1.44v-5.71c0-.83-.18-1.45-.53-1.87s-.88-.63-1.58-.63c-.38,0-.75.06-1.1.19-.35.13-.63.32-.85.58-.22.26-.32.59-.32.99v6.44Z"/>
    <path class="cls-1" d="M177.96,475.08h-1.8c-.49,0-.87-.14-1.13-.43-.26-.29-.4-.65-.4-1.1v-6.5h-1.53v-1.26h.86c.31,0,.52-.06.64-.19.11-.13.17-.35.17-.66v-1.73h1.3v2.57h2.03v1.26h-2.03v6.77h1.89v1.26Z"/>
    <path class="cls-1" d="M180.43,475.08v-13.32h1.44v5.54h.07c.23-.53.55-.95.96-1.26.41-.31.97-.47,1.67-.47.96,0,1.72.31,2.28.93.56.62.84,1.49.84,2.62v5.96h-1.44v-5.71c0-.83-.18-1.45-.53-1.87s-.88-.63-1.58-.63c-.38,0-.75.06-1.1.19-.35.13-.63.32-.85.58-.22.26-.32.59-.32.99v6.44h-1.44Z"/>
    <path class="cls-1" d="M194.15,475.29c-.84,0-1.57-.2-2.2-.6-.62-.4-1.11-.97-1.46-1.69-.35-.73-.52-1.58-.52-2.56s.17-1.84.52-2.57c.35-.73.83-1.29,1.46-1.69.62-.4,1.36-.6,2.2-.6s1.54.2,2.14.58c.6.39,1.06.93,1.39,1.61.32.68.49,1.46.49,2.34v.68h-6.68v.43c0,.8.24,1.47.73,2.01.49.53,1.16.8,2.02.8.59,0,1.1-.14,1.54-.41s.78-.67,1.02-1.19l1.03.74c-.3.62-.77,1.13-1.4,1.53-.64.4-1.39.59-2.27.59ZM194.15,466.78c-.52,0-.98.12-1.38.36-.4.24-.72.57-.94,1-.23.43-.34.91-.34,1.45v.13h5.13v-.2c0-.55-.1-1.03-.31-1.44-.2-.41-.49-.73-.86-.95-.37-.23-.8-.34-1.3-.34Z"/>
    <path class="cls-1" d="M201.25,463.61c-.3,0-.52-.08-.67-.23-.14-.15-.22-.34-.22-.58v-.23c0-.24.07-.43.22-.58s.37-.23.67-.23.54.08.67.23c.14.15.21.34.21.58v.23c0,.24-.07.44-.21.58-.14.15-.36.23-.67.23ZM200.53,475.08v-9.29h1.44v9.29h-1.44Z"/>
    <path class="cls-1" d="M206.48,475.08h-1.44v-9.29h1.44v1.71h.09c.11-.3.28-.58.5-.84s.52-.47.88-.63c.36-.16.79-.24,1.3-.24h.56v1.44h-.85c-.52,0-.96.07-1.33.21-.37.14-.66.32-.85.55-.2.23-.3.49-.3.79v6.3Z"/>
    <path class="cls-1" d="M221.83,475.08v-1.51h-.07c-.28.58-.64,1.01-1.09,1.3-.45.29-.99.43-1.63.43-.77,0-1.44-.2-2.01-.59-.57-.4-1.01-.96-1.31-1.69-.31-.73-.46-1.59-.46-2.57s.15-1.86.46-2.58c.31-.73.74-1.29,1.31-1.68.57-.4,1.24-.59,2.01-.59.64,0,1.19.14,1.66.42.47.28.82.72,1.06,1.3h.07v-5.54h1.44v13.32h-1.44ZM219.43,474c.44,0,.85-.08,1.21-.22.36-.15.65-.37.86-.65.22-.28.32-.62.32-1.02v-3.46c0-.35-.11-.65-.32-.92s-.5-.47-.86-.63c-.36-.16-.76-.23-1.21-.23-.8,0-1.44.25-1.92.76-.47.51-.71,1.18-.71,2.01v1.58c0,.83.24,1.5.71,2.01.47.51,1.11.76,1.92.76Z"/>
    <path class="cls-1" d="M227.05,463.61c-.3,0-.52-.08-.67-.23-.14-.15-.22-.34-.22-.58v-.23c0-.24.07-.43.22-.58s.37-.23.67-.23.54.08.67.23c.14.15.21.34.21.58v.23c0,.24-.07.44-.21.58-.14.15-.36.23-.67.23ZM226.33,475.08v-9.29h1.44v9.29h-1.44Z"/>
    <path class="cls-1" d="M233.62,475.29c-.85,0-1.57-.17-2.16-.5-.59-.33-1.09-.77-1.51-1.32l1.03-.83c.36.44.76.79,1.21,1.04s.96.38,1.55.38,1.09-.13,1.43-.4c.34-.26.51-.64.51-1.12,0-.36-.12-.67-.35-.94s-.66-.44-1.27-.52l-.74-.11c-.56-.08-1.07-.22-1.53-.42s-.81-.48-1.07-.85c-.26-.37-.39-.84-.39-1.41,0-.92.31-1.61.95-2.06.63-.45,1.42-.67,2.37-.67.5,0,.95.06,1.34.18.39.12.74.29,1.05.51.31.22.59.49.85.8l-.95.86c-.2-.29-.5-.55-.9-.78-.4-.23-.89-.35-1.49-.35s-1.04.13-1.35.39c-.31.26-.47.61-.47,1.05s.15.77.46.98c.31.21.75.36,1.32.46l.72.11c1.03.16,1.76.45,2.2.89.43.44.65,1.01.65,1.72,0,.6-.14,1.12-.41,1.55-.28.43-.67.76-1.19,1-.52.23-1.13.35-1.84.35Z"/>
    <path class="cls-1" d="M243.05,475.29c-1.31,0-2.32-.44-3.05-1.31s-1.09-2.06-1.09-3.55.36-2.67,1.09-3.55c.73-.88,1.74-1.31,3.05-1.31.92,0,1.67.2,2.23.61.56.41.98.93,1.24,1.57l-1.21.61c-.17-.48-.45-.85-.84-1.12-.39-.26-.87-.4-1.43-.4-.85,0-1.5.26-1.94.78-.44.52-.66,1.19-.66,2.01v1.58c0,.8.22,1.47.66,2,.44.53,1.08.79,1.94.79.59,0,1.09-.14,1.51-.41.42-.28.76-.68,1.01-1.21l1.04.7c-.3.66-.75,1.19-1.34,1.59-.59.4-1.33.6-2.22.6Z"/>
    <path class="cls-1" d="M254.37,475.08v-1.51h-.07c-.18.44-.47.84-.85,1.2-.39.35-.98.53-1.76.53-.95,0-1.71-.31-2.28-.93s-.85-1.49-.85-2.62v-5.96h1.44v5.71c0,.83.18,1.45.54,1.87s.89.63,1.58.63c.38,0,.75-.06,1.09-.19.34-.13.62-.32.84-.58.22-.26.32-.6.32-1.01v-6.43h1.44v9.29h-1.44Z"/>
    <path class="cls-1" d="M261.66,475.29c-.85,0-1.57-.17-2.16-.5-.59-.33-1.09-.77-1.51-1.32l1.03-.83c.36.44.76.79,1.21,1.04s.96.38,1.55.38,1.09-.13,1.43-.4c.34-.26.51-.64.51-1.12,0-.36-.12-.67-.35-.94s-.66-.44-1.27-.52l-.74-.11c-.56-.08-1.07-.22-1.53-.42s-.81-.48-1.07-.85c-.26-.37-.39-.84-.39-1.41,0-.92.31-1.61.95-2.06.63-.45,1.42-.67,2.37-.67.5,0,.95.06,1.34.18.39.12.74.29,1.05.51.31.22.59.49.85.8l-.95.86c-.2-.29-.5-.55-.9-.78-.4-.23-.89-.35-1.49-.35s-1.04.13-1.35.39c-.31.26-.47.61-.47,1.05s.15.77.46.98c.31.21.75.36,1.32.46l.72.11c1.03.16,1.76.45,2.2.89.43.44.65,1.01.65,1.72,0,.6-.14,1.12-.41,1.55-.28.43-.67.76-1.19,1-.52.23-1.13.35-1.84.35Z"/>
    <path class="cls-1" d="M270.32,475.29c-.85,0-1.57-.17-2.16-.5-.59-.33-1.09-.77-1.51-1.32l1.03-.83c.36.44.76.79,1.21,1.04s.96.38,1.55.38,1.09-.13,1.43-.4c.34-.26.51-.64.51-1.12,0-.36-.12-.67-.35-.94s-.66-.44-1.27-.52l-.74-.11c-.56-.08-1.07-.22-1.53-.42s-.81-.48-1.07-.85c-.26-.37-.39-.84-.39-1.41,0-.92.31-1.61.95-2.06.63-.45,1.42-.67,2.37-.67.5,0,.95.06,1.34.18.39.12.74.29,1.05.51.31.22.59.49.85.8l-.95.86c-.2-.29-.5-.55-.9-.78-.4-.23-.89-.35-1.49-.35s-1.04.13-1.35.39c-.31.26-.47.61-.47,1.05s.15.77.46.98c.31.21.75.36,1.32.46l.72.11c1.03.16,1.76.45,2.2.89.43.44.65,1.01.65,1.72,0,.6-.14,1.12-.41,1.55-.28.43-.67.76-1.19,1-.52.23-1.13.35-1.84.35Z"/>
    <path class="cls-1" d="M277.02,463.61c-.3,0-.52-.08-.67-.23-.14-.15-.22-.34-.22-.58v-.23c0-.24.07-.43.22-.58s.37-.23.67-.23.54.08.67.23c.14.15.21.34.21.58v.23c0,.24-.07.44-.21.58-.14.15-.36.23-.67.23ZM276.3,475.08v-9.29h1.44v9.29h-1.44Z"/>
    <path class="cls-1" d="M284.31,475.29c-.83,0-1.56-.2-2.19-.6-.63-.4-1.12-.97-1.48-1.69-.35-.73-.53-1.58-.53-2.56s.18-1.84.53-2.57c.35-.73.85-1.29,1.48-1.69.63-.4,1.36-.6,2.19-.6s1.56.2,2.19.6c.63.4,1.12.97,1.48,1.69.35.73.53,1.58.53,2.57s-.18,1.84-.53,2.56c-.35.73-.85,1.29-1.48,1.69-.63.4-1.36.6-2.19.6ZM284.31,474.01c.78,0,1.42-.24,1.91-.72.49-.48.74-1.21.74-2.2v-1.33c0-.98-.25-1.72-.74-2.2-.49-.48-1.13-.72-1.91-.72s-1.4.24-1.9.72c-.5.48-.75,1.21-.75,2.2v1.33c0,.98.25,1.72.75,2.2.5.48,1.13.72,1.9.72Z"/>
    <path class="cls-1" d="M292.32,475.08h-1.44v-9.29h1.44v1.51h.07c.23-.53.55-.95.96-1.26.41-.31.97-.47,1.67-.47.96,0,1.72.31,2.28.93.56.62.84,1.49.84,2.62v5.96h-1.44v-5.71c0-.83-.18-1.45-.53-1.87s-.88-.63-1.58-.63c-.38,0-.75.06-1.1.19-.35.13-.63.32-.85.58-.22.26-.32.59-.32.99v6.44Z"/>
    <path class="cls-1" d="M309.2,475.08h-1.8c-.49,0-.87-.14-1.13-.43-.26-.29-.4-.65-.4-1.1v-6.5h-1.53v-1.26h.86c.31,0,.52-.06.64-.19.11-.13.17-.35.17-.66v-1.73h1.3v2.57h2.03v1.26h-2.03v6.77h1.89v1.26Z"/>
    <path class="cls-1" d="M312.39,463.61c-.3,0-.52-.08-.67-.23-.14-.15-.22-.34-.22-.58v-.23c0-.24.07-.43.22-.58s.37-.23.67-.23.54.08.67.23c.14.15.21.34.21.58v.23c0,.24-.07.44-.21.58-.14.15-.36.23-.67.23ZM311.67,475.08v-9.29h1.44v9.29h-1.44Z"/>
    <path class="cls-1" d="M318.97,475.08h-1.28c-.49,0-.87-.14-1.13-.42-.26-.28-.4-.64-.4-1.07v-11.83h1.44v12.06h1.37v1.26Z"/>
    <path class="cls-1" d="M323.78,475.08h-1.28c-.49,0-.87-.14-1.13-.42-.26-.28-.4-.64-.4-1.07v-11.83h1.44v12.06h1.37v1.26Z"/>
    <path class="cls-1" d="M333.97,475.08h-1.8c-.49,0-.87-.14-1.13-.43-.26-.29-.4-.65-.4-1.1v-6.5h-1.53v-1.26h.86c.31,0,.52-.06.64-.19.11-.13.17-.35.17-.66v-1.73h1.3v2.57h2.03v1.26h-2.03v6.77h1.89v1.26Z"/>
    <path class="cls-1" d="M336.43,475.08v-13.32h1.44v5.54h.07c.23-.53.55-.95.96-1.26.41-.31.97-.47,1.67-.47.96,0,1.72.31,2.28.93.56.62.84,1.49.84,2.62v5.96h-1.44v-5.71c0-.83-.18-1.45-.53-1.87s-.88-.63-1.58-.63c-.38,0-.75.06-1.1.19-.35.13-.63.32-.85.58-.22.26-.32.59-.32.99v6.44h-1.44Z"/>
    <path class="cls-1" d="M350.15,475.29c-.84,0-1.57-.2-2.2-.6-.62-.4-1.11-.97-1.46-1.69-.35-.73-.52-1.58-.52-2.56s.17-1.84.52-2.57c.35-.73.83-1.29,1.46-1.69.62-.4,1.36-.6,2.2-.6s1.54.2,2.14.58c.6.39,1.06.93,1.39,1.61.32.68.49,1.46.49,2.34v.68h-6.68v.43c0,.8.24,1.47.73,2.01.49.53,1.16.8,2.02.8.59,0,1.1-.14,1.54-.41s.78-.67,1.02-1.19l1.03.74c-.3.62-.77,1.13-1.4,1.53-.64.4-1.39.59-2.27.59ZM350.15,466.78c-.52,0-.98.12-1.38.36-.4.24-.72.57-.94,1-.23.43-.34.91-.34,1.45v.13h5.13v-.2c0-.55-.1-1.03-.31-1.44-.2-.41-.49-.73-.86-.95-.37-.23-.8-.34-1.3-.34Z"/>
    <path class="cls-1" d="M364.64,475.08h-1.8c-.49,0-.87-.14-1.13-.43-.26-.29-.4-.65-.4-1.1v-6.5h-1.53v-1.26h.86c.31,0,.52-.06.64-.19.11-.13.17-.35.17-.66v-1.73h1.3v2.57h2.03v1.26h-2.03v6.77h1.89v1.26Z"/>
    <path class="cls-1" d="M367.83,463.61c-.3,0-.52-.08-.67-.23-.14-.15-.22-.34-.22-.58v-.23c0-.24.07-.43.22-.58s.37-.23.67-.23.54.08.67.23c.14.15.21.34.21.58v.23c0,.24-.07.44-.21.58-.14.15-.36.23-.67.23ZM367.1,475.08v-9.29h1.44v9.29h-1.44Z"/>
    <path class="cls-1" d="M373.05,475.08h-1.44v-9.29h1.44v1.51h.07c.2-.48.49-.89.86-1.22s.92-.5,1.64-.5c.61,0,1.18.15,1.69.44.52.29.9.78,1.15,1.45h.04c.17-.5.48-.94.95-1.32.46-.38,1.09-.57,1.88-.57.95,0,1.69.31,2.22.93.53.62.8,1.49.8,2.62v5.96h-1.44v-5.71c0-.82-.16-1.44-.49-1.86-.32-.43-.84-.64-1.55-.64-.37,0-.73.06-1.06.19s-.61.32-.81.58c-.2.26-.31.59-.31.99v6.44h-1.44v-5.71c0-.83-.16-1.45-.49-1.87-.32-.42-.83-.63-1.51-.63-.37,0-.73.06-1.07.19-.34.13-.62.32-.83.58-.21.26-.31.59-.31.99v6.44Z"/>
    <path class="cls-1" d="M390.81,475.29c-.84,0-1.57-.2-2.2-.6-.62-.4-1.11-.97-1.46-1.69-.35-.73-.52-1.58-.52-2.56s.17-1.84.52-2.57c.35-.73.83-1.29,1.46-1.69.62-.4,1.36-.6,2.2-.6s1.54.2,2.14.58c.6.39,1.06.93,1.39,1.61.32.68.49,1.46.49,2.34v.68h-6.68v.43c0,.8.24,1.47.73,2.01.49.53,1.16.8,2.02.8.59,0,1.1-.14,1.54-.41s.78-.67,1.02-1.19l1.03.74c-.3.62-.77,1.13-1.4,1.53-.64.4-1.39.59-2.27.59ZM390.81,466.78c-.52,0-.98.12-1.38.36-.4.24-.72.57-.94,1-.23.43-.34.91-.34,1.45v.13h5.13v-.2c0-.55-.1-1.03-.31-1.44-.2-.41-.49-.73-.86-.95-.37-.23-.8-.34-1.3-.34Z"/>
    <path class="cls-1" d="M402.17,463.61c-.3,0-.52-.08-.67-.23-.14-.15-.22-.34-.22-.58v-.23c0-.24.07-.43.22-.58s.37-.23.67-.23.54.08.67.23c.14.15.21.34.21.58v.23c0,.24-.07.44-.21.58-.14.15-.36.23-.67.23ZM401.45,475.08v-9.29h1.44v9.29h-1.44Z"/>
    <path class="cls-1" d="M408.74,475.29c-.85,0-1.57-.17-2.16-.5-.59-.33-1.09-.77-1.51-1.32l1.03-.83c.36.44.76.79,1.21,1.04s.96.38,1.55.38,1.09-.13,1.43-.4c.34-.26.51-.64.51-1.12,0-.36-.12-.67-.35-.94s-.66-.44-1.27-.52l-.74-.11c-.56-.08-1.07-.22-1.53-.42s-.81-.48-1.07-.85c-.26-.37-.39-.84-.39-1.41,0-.92.31-1.61.95-2.06.63-.45,1.42-.67,2.37-.67.5,0,.95.06,1.34.18.39.12.74.29,1.05.51.31.22.59.49.85.8l-.95.86c-.2-.29-.5-.55-.9-.78-.4-.23-.89-.35-1.49-.35s-1.04.13-1.35.39c-.31.26-.47.61-.47,1.05s.15.77.46.98c.31.21.75.36,1.32.46l.72.11c1.03.16,1.76.45,2.2.89.43.44.65,1.01.65,1.72,0,.6-.14,1.12-.41,1.55-.28.43-.67.76-1.19,1-.52.23-1.13.35-1.84.35Z"/>
    <path class="cls-1" d="M424.69,475.08v-1.51h-.07c-.18.44-.47.84-.85,1.2-.39.35-.98.53-1.76.53-.95,0-1.71-.31-2.28-.93s-.85-1.49-.85-2.62v-5.96h1.44v5.71c0,.83.18,1.45.54,1.87s.89.63,1.58.63c.38,0,.75-.06,1.09-.19.34-.13.62-.32.84-.58.22-.26.32-.6.32-1.01v-6.43h1.44v9.29h-1.44Z"/>
    <path class="cls-1" d="M429.19,478.68v-12.89h1.44v1.51h.07c.24-.59.59-1.02,1.06-1.3s1.02-.42,1.66-.42c.78,0,1.45.2,2.02.59.56.4,1,.96,1.31,1.68.31.73.46,1.59.46,2.58s-.15,1.84-.46,2.57c-.31.73-.74,1.3-1.31,1.69-.56.4-1.24.59-2.02.59-.64,0-1.18-.14-1.63-.43-.45-.29-.81-.72-1.09-1.3h-.07v5.11h-1.44ZM433.02,474c.82,0,1.46-.25,1.93-.76.47-.51.7-1.18.7-2.01v-1.58c0-.83-.23-1.5-.7-2.01-.47-.51-1.11-.76-1.93-.76-.43,0-.83.08-1.2.23-.37.16-.66.37-.87.63s-.32.57-.32.92v3.46c0,.4.11.74.32,1.02.22.28.51.5.87.65.37.15.77.22,1.2.22Z"/>
    <path class="cls-1" d="M440.18,475.29c-.37,0-.65-.1-.83-.3-.18-.2-.27-.45-.27-.75v-.23c0-.31.09-.56.27-.76.18-.19.46-.29.83-.29s.66.1.84.29c.17.19.26.44.26.76v.23c0,.3-.09.55-.26.75-.17.2-.45.3-.84.3Z"/>
  </g>
  <line class="cls-4" x1="242.5" y1="538.5" x2="242.5" y2="577.5"/>
  <line class="cls-4" x1="156.5" y1="540" x2="156.5" y2="579"/>
  <line class="cls-4" x1="71.5" y1="538" x2="71.5" y2="577"/>
</svg>